STARTFONT 2.1
COMMENT  
COMMENT  Copyright (c) 1984, 1987 Adobe Systems Incorporated. All Rights Reserved. Copyright (c) 1988, 1991 Digital Equipment Corporation. All Rights Reserved.
COMMENT  
COMMENT  WARNING:  This bdf file was generated from a font server using
COMMENT  fstobdf.  The resulting font is subject to the same copyright,
COMMENT  license, and trademark restrictions as the original font.  The
COMMENT  authors and distributors of fstobdf disclaim all liability for
COMMENT  misuse of the program or its output.
COMMENT  
FONT -Adobe-Courier-Medium-R-Normal--12-120-75-75-M-70-ISO8859-1
SIZE 12 75 75
FONTBOUNDINGBOX 8 14 0 -3
STARTPROPERTIES 32
FOUNDRY "Adobe"
FAMILY_NAME "Courier"
WEIGHT_NAME "Medium"
SLANT "R"
SETWIDTH_NAME "Normal"
ADD_STYLE_NAME ""
PIXEL_SIZE 12
POINT_SIZE 120
RESOLUTION_X 75
RESOLUTION_Y 75
SPACING "M"
AVERAGE_WIDTH 70
CHARSET_REGISTRY "ISO8859"
CHARSET_ENCODING "1"
CAP_HEIGHT 8
X_HEIGHT 6
FACE_NAME "Courier"
COPYRIGHT "Copyright (c) 1984, 1987 Adobe Systems Incorporated. All Rights Reserved. Copyright (c) 1988, 1991 Digital Equipment Corporation. All Rights Reserved."
NOTICE "No mark"
_DEC_DEVICE_FONTNAMES "PS=Courier"
_DEC_PRODUCTINFO "DECwindows Fonts V2.2, 07-Nov-1991"
RELATIVE_SETWIDTH 50
RELATIVE_WEIGHT 50
CHARSET_COLLECTIONS "ASCII ISO8859-1 ADOBE-STANDARD"
FULL_NAME "Courier"
FONT "-Adobe-Courier-Medium-R-Normal--12-120-75-75-M-70-ISO8859-1"
WEIGHT 10
RESOLUTION 103
QUAD_WIDTH 7
DEFAULT_CHAR 32
FONT_ASCENT 10
FONT_DESCENT 3
ENDPROPERTIES
CHARS 191
STARTCHAR space
ENCODING 32
SWIDTH 560 0
DWIDTH 7 0
BBX 1 1 0 0
BITMAP
00
ENDCHAR
STARTCHAR exclam
ENCODING 33
SWIDTH 560 0
DWIDTH 7 0
BBX 1 9 3 0
BITMAP
80
80
80
80
80
80
80
00
80
ENDCHAR
STARTCHAR quotedbl
ENCODING 34
SWIDTH 560 0
DWIDTH 7 0
BBX 3 3 2 5
BITMAP
a0
a0
a0
ENDCHAR
STARTCHAR numbersign
ENCODING 35
SWIDTH 560 0
DWIDTH 7 0
BBX 7 8 0 0
BITMAP
14
14
7e
28
28
fc
50
50
ENDCHAR
STARTCHAR dollar
ENCODING 36
SWIDTH 560 0
DWIDTH 7 0
BBX 5 10 1 -1
BITMAP
20
70
88
80
60
30
88
88
70
20
ENDCHAR
STARTCHAR percent
ENCODING 37
SWIDTH 560 0
DWIDTH 7 0
BBX 6 8 1 0
BITMAP
60
90
64
18
60
98
24
18
ENDCHAR
STARTCHAR ampersand
ENCODING 38
SWIDTH 560 0
DWIDTH 7 0
BBX 7 8 0 0
BITMAP
38
48
40
22
74
88
8c
72
ENDCHAR
STARTCHAR apostrophe
ENCODING 39
SWIDTH 560 0
DWIDTH 7 0
BBX 2 3 2 5
BITMAP
40
40
80
ENDCHAR
STARTCHAR parenleft
ENCODING 40
SWIDTH 560 0
DWIDTH 7 0
BBX 3 11 3 -2
BITMAP
20
40
40
80
80
80
80
80
40
40
20
ENDCHAR
STARTCHAR parenright
ENCODING 41
SWIDTH 560 0
DWIDTH 7 0
BBX 3 11 1 -2
BITMAP
80
40
40
20
20
20
20
20
40
40
80
ENDCHAR
STARTCHAR asterisk
ENCODING 42
SWIDTH 560 0
DWIDTH 7 0
BBX 5 5 1 3
BITMAP
20
20
f8
20
50
ENDCHAR
STARTCHAR plus
ENCODING 43
SWIDTH 560 0
DWIDTH 7 0
BBX 5 5 1 1
BITMAP
20
20
f8
20
20
ENDCHAR
STARTCHAR comma
ENCODING 44
SWIDTH 560 0
DWIDTH 7 0
BBX 2 3 1 -1
BITMAP
40
40
80
ENDCHAR
STARTCHAR minus
ENCODING 45
SWIDTH 560 0
DWIDTH 7 0
BBX 5 1 1 3
BITMAP
f8
ENDCHAR
STARTCHAR period
ENCODING 46
SWIDTH 560 0
DWIDTH 7 0
BBX 1 1 2 0
BITMAP
80
ENDCHAR
STARTCHAR slash
ENCODING 47
SWIDTH 560 0
DWIDTH 7 0
BBX 6 10 1 -1
BITMAP
04
08
08
10
10
20
20
40
40
80
ENDCHAR
STARTCHAR 0
ENCODING 48
SWIDTH 560 0
DWIDTH 7 0
BBX 5 9 1 0
BITMAP
70
88
88
88
88
88
88
88
70
ENDCHAR
STARTCHAR 1
ENCODING 49
SWIDTH 560 0
DWIDTH 7 0
BBX 5 9 1 0
BITMAP
20
e0
20
20
20
20
20
20
f8
ENDCHAR
STARTCHAR 2
ENCODING 50
SWIDTH 560 0
DWIDTH 7 0
BBX 5 9 1 0
BITMAP
70
88
88
88
10
20
40
88
f8
ENDCHAR
STARTCHAR 3
ENCODING 51
SWIDTH 560 0
DWIDTH 7 0
BBX 5 9 1 0
BITMAP
70
88
08
08
30
08
08
88
70
ENDCHAR
STARTCHAR 4
ENCODING 52
SWIDTH 560 0
DWIDTH 7 0
BBX 6 9 0 0
BITMAP
08
18
28
28
48
88
fc
08
1c
ENDCHAR
STARTCHAR 5
ENCODING 53
SWIDTH 560 0
DWIDTH 7 0
BBX 6 9 0 0
BITMAP
7c
40
40
40
78
04
04
84
78
ENDCHAR
STARTCHAR 6
ENCODING 54
SWIDTH 560 0
DWIDTH 7 0
BBX 5 9 1 0
BITMAP
38
40
80
80
f0
88
88
88
70
ENDCHAR
STARTCHAR 7
ENCODING 55
SWIDTH 560 0
DWIDTH 7 0
BBX 5 9 1 0
BITMAP
f8
88
10
10
10
10
20
20
20
ENDCHAR
STARTCHAR 8
ENCODING 56
SWIDTH 560 0
DWIDTH 7 0
BBX 5 9 1 0
BITMAP
70
88
88
88
70
88
88
88
70
ENDCHAR
STARTCHAR 9
ENCODING 57
SWIDTH 560 0
DWIDTH 7 0
BBX 5 9 1 0
BITMAP
70
88
88
88
88
78
08
10
e0
ENDCHAR
STARTCHAR colon
ENCODING 58
SWIDTH 560 0
DWIDTH 7 0
BBX 1 5 3 0
BITMAP
80
00
00
00
80
ENDCHAR
STARTCHAR semicolon
ENCODING 59
SWIDTH 560 0
DWIDTH 7 0
BBX 2 6 2 -1
BITMAP
40
00
00
40
40
80
ENDCHAR
STARTCHAR less
ENCODING 60
SWIDTH 560 0
DWIDTH 7 0
BBX 4 7 1 0
BITMAP
10
20
40
80
40
20
10
ENDCHAR
STARTCHAR equal
ENCODING 61
SWIDTH 560 0
DWIDTH 7 0
BBX 5 3 1 2
BITMAP
f8
00
f8
ENDCHAR
STARTCHAR greater
ENCODING 62
SWIDTH 560 0
DWIDTH 7 0
BBX 4 7 2 0
BITMAP
80
40
20
10
20
40
80
ENDCHAR
STARTCHAR question
ENCODING 63
SWIDTH 560 0
DWIDTH 7 0
BBX 5 8 1 0
BITMAP
70
88
08
10
20
20
00
20
ENDCHAR
STARTCHAR at
ENCODING 64
SWIDTH 560 0
DWIDTH 7 0
BBX 6 8 1 0
BITMAP
70
88
98
a8
a8
9c
80
70
ENDCHAR
STARTCHAR A
ENCODING 65
SWIDTH 560 0
DWIDTH 7 0
BBX 7 8 0 0
BITMAP
70
10
28
28
7c
44
44
ee
ENDCHAR
STARTCHAR B
ENCODING 66
SWIDTH 560 0
DWIDTH 7 0
BBX 6 8 0 0
BITMAP
f8
44
44
78
44
44
44
f8
ENDCHAR
STARTCHAR C
ENCODING 67
SWIDTH 560 0
DWIDTH 7 0
BBX 5 8 1 0
BITMAP
70
88
88
80
80
88
88
70
ENDCHAR
STARTCHAR D
ENCODING 68
SWIDTH 560 0
DWIDTH 7 0
BBX 6 8 0 0
BITMAP
f8
44
44
44
44
44
44
f8
ENDCHAR
STARTCHAR E
ENCODING 69
SWIDTH 560 0
DWIDTH 7 0
BBX 6 8 0 0
BITMAP
fc
44
50
70
50
40
44
fc
ENDCHAR
STARTCHAR F
ENCODING 70
SWIDTH 560 0
DWIDTH 7 0
BBX 6 8 0 0
BITMAP
fc
44
54
70
50
40
40
f0
ENDCHAR
STARTCHAR G
ENCODING 71
SWIDTH 560 0
DWIDTH 7 0
BBX 5 8 1 0
BITMAP
70
88
88
80
98
88
88
70
ENDCHAR
STARTCHAR H
ENCODING 72
SWIDTH 560 0
DWIDTH 7 0
BBX 7 8 0 0
BITMAP
ee
44
44
7c
44
44
44
ee
ENDCHAR
STARTCHAR I
ENCODING 73
SWIDTH 560 0
DWIDTH 7 0
BBX 5 8 1 0
BITMAP
f8
20
20
20
20
20
20
f8
ENDCHAR
STARTCHAR J
ENCODING 74
SWIDTH 560 0
DWIDTH 7 0
BBX 5 8 1 0
BITMAP
78
10
10
10
10
90
90
60
ENDCHAR
STARTCHAR K
ENCODING 75
SWIDTH 560 0
DWIDTH 7 0
BBX 7 8 0 0
BITMAP
ec
48
50
60
70
48
44
e6
ENDCHAR
STARTCHAR L
ENCODING 76
SWIDTH 560 0
DWIDTH 7 0
BBX 6 8 0 0
BITMAP
e0
40
40
40
40
44
44
fc
ENDCHAR
STARTCHAR M
ENCODING 77
SWIDTH 560 0
DWIDTH 7 0
BBX 7 8 0 0
BITMAP
c6
6c
6c
54
54
54
44
ee
ENDCHAR
STARTCHAR N
ENCODING 78
SWIDTH 560 0
DWIDTH 7 0
BBX 7 8 0 0
BITMAP
ce
64
64
54
54
4c
4c
e4
ENDCHAR
STARTCHAR O
ENCODING 79
SWIDTH 560 0
DWIDTH 7 0
BBX 5 8 1 0
BITMAP
70
88
88
88
88
88
88
70
ENDCHAR
STARTCHAR P
ENCODING 80
SWIDTH 560 0
DWIDTH 7 0
BBX 6 8 0 0
BITMAP
f8
4c
44
4c
78
40
40
f0
ENDCHAR
STARTCHAR Q
ENCODING 81
SWIDTH 560 0
DWIDTH 7 0
BBX 5 9 1 -1
BITMAP
70
88
88
88
88
88
88
70
18
ENDCHAR
STARTCHAR R
ENCODING 82
SWIDTH 560 0
DWIDTH 7 0
BBX 7 8 0 0
BITMAP
f8
44
44
78
48
44
44
e6
ENDCHAR
STARTCHAR S
ENCODING 83
SWIDTH 560 0
DWIDTH 7 0
BBX 5 8 1 0
BITMAP
78
88
80
e0
38
08
88
f0
ENDCHAR
STARTCHAR T
ENCODING 84
SWIDTH 560 0
DWIDTH 7 0
BBX 7 8 0 0
BITMAP
fe
92
92
10
10
10
10
7c
ENDCHAR
STARTCHAR U
ENCODING 85
SWIDTH 560 0
DWIDTH 7 0
BBX 7 8 0 0
BITMAP
ee
44
44
44
44
44
6c
38
ENDCHAR
STARTCHAR V
ENCODING 86
SWIDTH 560 0
DWIDTH 7 0
BBX 7 8 0 0
BITMAP
ee
44
44
6c
28
28
38
10
ENDCHAR
STARTCHAR W
ENCODING 87
SWIDTH 560 0
DWIDTH 7 0
BBX 7 8 0 0
BITMAP
ee
44
54
54
54
6c
28
28
ENDCHAR
STARTCHAR X
ENCODING 88
SWIDTH 560 0
DWIDTH 7 0
BBX 7 8 0 0
BITMAP
ee
44
28
10
28
28
44
ee
ENDCHAR
STARTCHAR Y
ENCODING 89
SWIDTH 560 0
DWIDTH 7 0
BBX 7 8 0 0
BITMAP
ee
44
28
28
10
10
10
38
ENDCHAR
STARTCHAR Z
ENCODING 90
SWIDTH 560 0
DWIDTH 7 0
BBX 5 8 1 0
BITMAP
f8
88
90
20
20
48
88
f8
ENDCHAR
STARTCHAR bracketleft
ENCODING 91
SWIDTH 560 0
DWIDTH 7 0
BBX 2 11 3 -2
BITMAP
c0
80
80
80
80
80
80
80
80
80
c0
ENDCHAR
STARTCHAR backslash
ENCODING 92
SWIDTH 560 0
DWIDTH 7 0
BBX 6 10 1 -1
BITMAP
80
40
40
20
20
10
10
08
08
04
ENDCHAR
STARTCHAR bracketright
ENCODING 93
SWIDTH 560 0
DWIDTH 7 0
BBX 2 11 2 -2
BITMAP
c0
40
40
40
40
40
40
40
40
40
c0
ENDCHAR
STARTCHAR asciicircum
ENCODING 94
SWIDTH 560 0
DWIDTH 7 0
BBX 5 3 1 5
BITMAP
20
50
88
ENDCHAR
STARTCHAR underscore
ENCODING 95
SWIDTH 560 0
DWIDTH 7 0
BBX 7 1 0 -3
BITMAP
fe
ENDCHAR
STARTCHAR grave
ENCODING 96
SWIDTH 560 0
DWIDTH 7 0
BBX 2 3 3 5
BITMAP
80
80
40
ENDCHAR
STARTCHAR a
ENCODING 97
SWIDTH 560 0
DWIDTH 7 0
BBX 6 6 1 0
BITMAP
f0
08
78
88
88
74
ENDCHAR
STARTCHAR b
ENCODING 98
SWIDTH 560 0
DWIDTH 7 0
BBX 6 9 0 0
BITMAP
c0
40
40
78
44
44
44
44
b8
ENDCHAR
STARTCHAR c
ENCODING 99
SWIDTH 560 0
DWIDTH 7 0
BBX 5 6 1 0
BITMAP
70
88
80
80
88
70
ENDCHAR
STARTCHAR d
ENCODING 100
SWIDTH 560 0
DWIDTH 7 0
BBX 6 9 1 0
BITMAP
18
08
08
78
88
88
88
88
74
ENDCHAR
STARTCHAR e
ENCODING 101
SWIDTH 560 0
DWIDTH 7 0
BBX 5 6 1 0
BITMAP
70
88
f8
80
88
70
ENDCHAR
STARTCHAR f
ENCODING 102
SWIDTH 560 0
DWIDTH 7 0
BBX 5 9 1 0
BITMAP
38
40
40
f8
40
40
40
40
f0
ENDCHAR
STARTCHAR g
ENCODING 103
SWIDTH 560 0
DWIDTH 7 0
BBX 6 9 1 -3
BITMAP
74
88
88
88
88
78
08
08
70
ENDCHAR
STARTCHAR h
ENCODING 104
SWIDTH 560 0
DWIDTH 7 0
BBX 7 9 0 0
BITMAP
c0
40
40
58
64
44
44
44
ee
ENDCHAR
STARTCHAR i
ENCODING 105
SWIDTH 560 0
DWIDTH 7 0
BBX 5 9 1 0
BITMAP
20
00
00
e0
20
20
20
20
f8
ENDCHAR
STARTCHAR j
ENCODING 106
SWIDTH 560 0
DWIDTH 7 0
BBX 4 12 1 -3
BITMAP
10
00
00
f0
10
10
10
10
10
10
10
e0
ENDCHAR
STARTCHAR k
ENCODING 107
SWIDTH 560 0
DWIDTH 7 0
BBX 7 9 0 0
BITMAP
c0
40
40
4c
50
60
50
48
c6
ENDCHAR
STARTCHAR l
ENCODING 108
SWIDTH 560 0
DWIDTH 7 0
BBX 6 9 1 0
BITMAP
e0
20
20
20
20
20
20
20
fc
ENDCHAR
STARTCHAR m
ENCODING 109
SWIDTH 560 0
DWIDTH 7 0
BBX 7 6 0 0
BITMAP
e8
54
54
54
54
d6
ENDCHAR
STARTCHAR n
ENCODING 110
SWIDTH 560 0
DWIDTH 7 0
BBX 7 6 0 0
BITMAP
b8
64
44
44
44
e6
ENDCHAR
STARTCHAR o
ENCODING 111
SWIDTH 560 0
DWIDTH 7 0
BBX 5 6 1 0
BITMAP
70
88
88
88
88
70
ENDCHAR
STARTCHAR p
ENCODING 112
SWIDTH 560 0
DWIDTH 7 0
BBX 6 9 0 -3
BITMAP
b8
44
44
44
44
78
40
40
e0
ENDCHAR
STARTCHAR q
ENCODING 113
SWIDTH 560 0
DWIDTH 7 0
BBX 6 9 1 -3
BITMAP
74
88
88
88
88
78
08
08
1c
ENDCHAR
STARTCHAR r
ENCODING 114
SWIDTH 560 0
DWIDTH 7 0
BBX 5 6 1 0
BITMAP
b8
40
40
40
40
f0
ENDCHAR
STARTCHAR s
ENCODING 115
SWIDTH 560 0
DWIDTH 7 0
BBX 5 6 1 0
BITMAP
70
88
70
08
88
70
ENDCHAR
STARTCHAR t
ENCODING 116
SWIDTH 560 0
DWIDTH 7 0
BBX 6 8 1 0
BITMAP
40
40
f8
40
40
40
44
38
ENDCHAR
STARTCHAR u
ENCODING 117
SWIDTH 560 0
DWIDTH 7 0
BBX 7 6 0 0
BITMAP
cc
44
44
44
44
3a
ENDCHAR
STARTCHAR v
ENCODING 118
SWIDTH 560 0
DWIDTH 7 0
BBX 7 6 0 0
BITMAP
ee
44
44
28
38
10
ENDCHAR
STARTCHAR w
ENCODING 119
SWIDTH 560 0
DWIDTH 7 0
BBX 7 6 0 0
BITMAP
ee
44
54
54
28
28
ENDCHAR
STARTCHAR x
ENCODING 120
SWIDTH 560 0
DWIDTH 7 0
BBX 7 6 0 0
BITMAP
ee
28
10
28
44
c6
ENDCHAR
STARTCHAR y
ENCODING 121
SWIDTH 560 0
DWIDTH 7 0
BBX 7 9 0 -3
BITMAP
ee
44
44
28
38
10
10
10
60
ENDCHAR
STARTCHAR z
ENCODING 122
SWIDTH 560 0
DWIDTH 7 0
BBX 5 6 1 0
BITMAP
f8
90
20
40
88
f8
ENDCHAR
STARTCHAR braceleft
ENCODING 123
SWIDTH 560 0
DWIDTH 7 0
BBX 3 10 2 -2
BITMAP
20
40
40
40
80
40
40
40
40
20
ENDCHAR
STARTCHAR bar
ENCODING 124
SWIDTH 560 0
DWIDTH 7 0
BBX 1 10 3 -2
BITMAP
80
80
80
80
80
80
80
80
80
80
ENDCHAR
STARTCHAR braceright
ENCODING 125
SWIDTH 560 0
DWIDTH 7 0
BBX 3 10 2 -2
BITMAP
80
40
40
40
20
40
40
40
40
80
ENDCHAR
STARTCHAR asciitilde
ENCODING 126
SWIDTH 560 0
DWIDTH 7 0
BBX 5 3 1 2
BITMAP
48
a8
90
ENDCHAR
STARTCHAR nobreakspace
ENCODING 160
SWIDTH 560 0
DWIDTH 7 0
BBX 1 1 0 0
BITMAP
00
ENDCHAR
STARTCHAR exclamdown
ENCODING 161
SWIDTH 560 0
DWIDTH 7 0
BBX 1 9 3 -3
BITMAP
00
00
00
00
00
00
00
00
00
ENDCHAR
STARTCHAR cent
ENCODING 162
SWIDTH 560 0
DWIDTH 7 0
BBX 5 9 1 -1
BITMAP
00
00
00
00
00
00
00
00
00
ENDCHAR
STARTCHAR sterling
ENCODING 163
SWIDTH 560 0
DWIDTH 7 0
BBX 6 8 1 0
BITMAP
00
00
00
00
00
00
00
00
ENDCHAR
STARTCHAR currency
ENCODING 164
SWIDTH 560 0
DWIDTH 7 0
BBX 6 6 0 1
BITMAP
00
00
00
00
00
00
ENDCHAR
STARTCHAR yen
ENCODING 165
SWIDTH 560 0
DWIDTH 7 0
BBX 7 8 0 0
BITMAP
00
80
00
00
80
80
80
80
ENDCHAR
STARTCHAR brokenbar
ENCODING 166
SWIDTH 560 0
DWIDTH 7 0
BBX 1 10 3 -2
BITMAP
80
80
00
00
00
80
80
80
00
00
ENDCHAR
STARTCHAR section
ENCODING 167
SWIDTH 560 0
DWIDTH 7 0
BBX 5 10 1 -1
BITMAP
20
30
48
40
f8
20
20
40
f8
80
ENDCHAR
STARTCHAR diaeresis
ENCODING 168
SWIDTH 560 0
DWIDTH 7 0
BBX 3 1 2 7
BITMAP
60
ENDCHAR
STARTCHAR copyright
ENCODING 169
SWIDTH 560 0
DWIDTH 7 0
BBX 7 8 0 0
BITMAP
48
48
78
84
ee
44
28
7c
ENDCHAR
STARTCHAR ordfeminine
ENCODING 170
SWIDTH 560 0
DWIDTH 7 0
BBX 4 6 1 2
BITMAP
10
70
10
30
80
80
ENDCHAR
STARTCHAR guillemotleft
ENCODING 171
SWIDTH 560 0
DWIDTH 7 0
BBX 6 5 0 1
BITMAP
80
80
00
00
80
ENDCHAR
STARTCHAR notsign
ENCODING 172
SWIDTH 560 0
DWIDTH 7 0
BBX 5 3 1 2
BITMAP
80
80
80
ENDCHAR
STARTCHAR hyphen
ENCODING 173
SWIDTH 560 0
DWIDTH 7 0
BBX 5 1 1 3
BITMAP
78
ENDCHAR
STARTCHAR registered
ENCODING 174
SWIDTH 560 0
DWIDTH 7 0
BBX 7 8 0 0
BITMAP
48
60
90
88
48
30
90
90
ENDCHAR
STARTCHAR macron
ENCODING 175
SWIDTH 560 0
DWIDTH 7 0
BBX 5 1 1 7
BITMAP
f0
ENDCHAR
STARTCHAR degree
ENCODING 176
SWIDTH 560 0
DWIDTH 7 0
BBX 4 4 1 4
BITMAP
a0
30
40
90
ENDCHAR
STARTCHAR plusminus
ENCODING 177
SWIDTH 560 0
DWIDTH 7 0
BBX 5 5 1 1
BITMAP
a0
a0
98
40
38
ENDCHAR
STARTCHAR twosuperior
ENCODING 178
SWIDTH 560 0
DWIDTH 7 0
BBX 4 5 1 3
BITMAP
60
10
70
50
00
ENDCHAR
STARTCHAR threesuperior
ENCODING 179
SWIDTH 560 0
DWIDTH 7 0
BBX 4 5 1 3
BITMAP
f0
20
40
90
40
ENDCHAR
STARTCHAR acute
ENCODING 180
SWIDTH 560 0
DWIDTH 7 0
BBX 2 2 3 7
BITMAP
00
c0
ENDCHAR
STARTCHAR mu
ENCODING 181
SWIDTH 560 0
DWIDTH 7 0
BBX 7 9 0 -3
BITMAP
08
08
f8
38
44
ba
aa
b2
aa
ENDCHAR
STARTCHAR paragraph
ENCODING 182
SWIDTH 560 0
DWIDTH 7 0
BBX 6 10 0 -1
BITMAP
44
38
f8
60
90
90
60
20
f8
20
ENDCHAR
STARTCHAR periodcentered
ENCODING 183
SWIDTH 560 0
DWIDTH 7 0
BBX 1 1 3 3
BITMAP
00
ENDCHAR
STARTCHAR cedilla
ENCODING 184
SWIDTH 560 0
DWIDTH 7 0
BBX 3 3 2 -3
BITMAP
e0
60
80
ENDCHAR
STARTCHAR onesuperior
ENCODING 185
SWIDTH 560 0
DWIDTH 7 0
BBX 3 5 2 3
BITMAP
20
40
e0
60
80
ENDCHAR
STARTCHAR masculine
ENCODING 186
SWIDTH 560 0
DWIDTH 7 0
BBX 4 6 1 2
BITMAP
20
90
60
40
80
c0
ENDCHAR
STARTCHAR guillemotright
ENCODING 187
SWIDTH 560 0
DWIDTH 7 0
BBX 6 5 1 1
BITMAP
44
44
44
44
78
ENDCHAR
STARTCHAR onequarter
ENCODING 188
SWIDTH 560 0
DWIDTH 7 0
BBX 8 10 0 -1
BITMAP
40
40
40
7c
a8
a8
a8
68
28
28
ENDCHAR
STARTCHAR onehalf
ENCODING 189
SWIDTH 560 0
DWIDTH 7 0
BBX 8 10 0 -1
BITMAP
28
28
6c
80
40
20
c0
40
c0
40
ENDCHAR
STARTCHAR threequarters
ENCODING 190
SWIDTH 560 0
DWIDTH 7 0
BBX 8 10 0 -1
BITMAP
40
e0
60
90
90
60
00
f0
90
48
ENDCHAR
STARTCHAR questiondown
ENCODING 191
SWIDTH 560 0
DWIDTH 7 0
BBX 5 8 1 -2
BITMAP
20
48
90
40
c0
40
40
e8
ENDCHAR
STARTCHAR Agrave
ENCODING 192
SWIDTH 560 0
DWIDTH 7 0
BBX 7 11 0 0
BITMAP
12
26
4a
8e
02
40
c0
42
44
e8
16
ENDCHAR
STARTCHAR Aacute
ENCODING 193
SWIDTH 560 0
DWIDTH 7 0
BBX 7 11 0 0
BITMAP
28
42
84
0e
60
90
22
94
68
12
26
ENDCHAR
STARTCHAR Acircumflex
ENCODING 194
SWIDTH 560 0
DWIDTH 7 0
BBX 7 11 0 0
BITMAP
4a
8e
02
20
00
20
20
40
80
88
70
ENDCHAR
STARTCHAR Atilde
ENCODING 195
SWIDTH 560 0
DWIDTH 7 0
BBX 7 11 0 0
BITMAP
20
10
00
70
10
28
28
7c
44
44
ee
ENDCHAR
STARTCHAR Adiaeresis
ENCODING 196
SWIDTH 560 0
DWIDTH 7 0
BBX 7 10 0 0
BITMAP
08
10
00
70
10
28
28
7c
44
44
ENDCHAR
STARTCHAR Aring
ENCODING 197
SWIDTH 560 0
DWIDTH 7 0
BBX 7 11 0 0
BITMAP
ee
10
28
00
70
10
28
28
7c
44
44
ENDCHAR
STARTCHAR AE
ENCODING 198
SWIDTH 560 0
DWIDTH 7 0
BBX 6 8 0 0
BITMAP
ec
28
50
00
70
10
28
28
ENDCHAR
STARTCHAR Ccedilla
ENCODING 199
SWIDTH 560 0
DWIDTH 7 0
BBX 5 11 1 -3
BITMAP
78
40
40
e8
28
00
70
10
28
28
78
ENDCHAR
STARTCHAR Egrave
ENCODING 200
SWIDTH 560 0
DWIDTH 7 0
BBX 6 11 0 0
BITMAP
44
44
ec
10
28
10
70
10
28
28
7c
ENDCHAR
STARTCHAR Eacute
ENCODING 201
SWIDTH 560 0
DWIDTH 7 0
BBX 6 11 0 0
BITMAP
44
44
ec
7c
30
50
5c
50
f0
90
9c
ENDCHAR
STARTCHAR Ecircumflex
ENCODING 202
SWIDTH 560 0
DWIDTH 7 0
BBX 6 11 0 0
BITMAP
70
88
88
80
80
88
88
70
20
10
60
ENDCHAR
STARTCHAR Ediaeresis
ENCODING 203
SWIDTH 560 0
DWIDTH 7 0
BBX 6 10 0 0
BITMAP
20
10
00
fc
44
48
78
48
44
44
ENDCHAR
STARTCHAR Igrave
ENCODING 204
SWIDTH 560 0
DWIDTH 7 0
BBX 5 11 1 0
BITMAP
f8
08
10
00
f8
40
48
78
48
40
40
ENDCHAR
STARTCHAR Iacute
ENCODING 205
SWIDTH 560 0
DWIDTH 7 0
BBX 5 11 1 0
BITMAP
f8
10
28
00
f8
40
48
78
48
40
40
ENDCHAR
STARTCHAR Icircumflex
ENCODING 206
SWIDTH 560 0
DWIDTH 7 0
BBX 5 11 1 0
BITMAP
f8
28
00
f8
40
48
78
48
40
40
f8
ENDCHAR
STARTCHAR Idiaeresis
ENCODING 207
SWIDTH 560 0
DWIDTH 7 0
BBX 5 10 1 0
BITMAP
40
20
00
f8
20
20
20
20
20
20
ENDCHAR
STARTCHAR ETH
ENCODING 208
SWIDTH 560 0
DWIDTH 7 0
BBX 6 8 0 0
BITMAP
f8
10
20
00
f8
20
20
20
ENDCHAR
STARTCHAR Ntilde
ENCODING 209
SWIDTH 560 0
DWIDTH 7 0
BBX 7 11 0 0
BITMAP
20
20
20
f8
20
50
00
f8
20
20
20
ENDCHAR
STARTCHAR Ograve
ENCODING 210
SWIDTH 560 0
DWIDTH 7 0
BBX 5 11 1 0
BITMAP
20
20
20
f8
50
00
f8
20
20
20
20
ENDCHAR
STARTCHAR Oacute
ENCODING 211
SWIDTH 560 0
DWIDTH 7 0
BBX 5 11 1 0
BITMAP
20
20
f8
f8
40
40
e0
40
40
40
f8
ENDCHAR
STARTCHAR Ocircumflex
ENCODING 212
SWIDTH 560 0
DWIDTH 7 0
BBX 5 11 1 0
BITMAP
10
28
00
e8
60
50
50
48
48
40
e0
ENDCHAR
STARTCHAR Otilde
ENCODING 213
SWIDTH 560 0
DWIDTH 7 0
BBX 5 11 1 0
BITMAP
40
20
00
70
88
88
88
88
88
88
70
ENDCHAR
STARTCHAR Odiaeresis
ENCODING 214
SWIDTH 560 0
DWIDTH 7 0
BBX 5 10 1 0
BITMAP
10
20
00
70
88
88
88
88
88
88
ENDCHAR
STARTCHAR multiply
ENCODING 215
SWIDTH 560 0
DWIDTH 7 0
BBX 5 5 1 1
BITMAP
70
20
50
00
70
ENDCHAR
STARTCHAR Ooblique
ENCODING 216
SWIDTH 560 0
DWIDTH 7 0
BBX 5 10 1 -1
BITMAP
88
88
88
88
88
88
70
28
50
00
ENDCHAR
STARTCHAR Ugrave
ENCODING 217
SWIDTH 560 0
DWIDTH 7 0
BBX 7 11 0 0
BITMAP
70
88
88
88
88
88
88
70
50
00
70
ENDCHAR
STARTCHAR Uacute
ENCODING 218
SWIDTH 560 0
DWIDTH 7 0
BBX 7 11 0 0
BITMAP
88
88
88
88
88
88
70
88
50
20
50
ENDCHAR
STARTCHAR Ucircumflex
ENCODING 219
SWIDTH 560 0
DWIDTH 7 0
BBX 7 11 0 0
BITMAP
88
08
70
98
a8
a8
a8
a8
c8
70
80
ENDCHAR
STARTCHAR Udiaeresis
ENCODING 220
SWIDTH 560 0
DWIDTH 7 0
BBX 7 10 0 0
BITMAP
20
10
00
ee
44
44
44
44
44
6c
ENDCHAR
STARTCHAR Yacute
ENCODING 221
SWIDTH 560 0
DWIDTH 7 0
BBX 7 11 0 0
BITMAP
38
08
10
00
ee
44
44
44
44
44
6c
ENDCHAR
STARTCHAR THORN
ENCODING 222
SWIDTH 560 0
DWIDTH 7 0
BBX 6 8 0 0
BITMAP
38
10
28
00
ec
44
44
44
ENDCHAR
STARTCHAR ssharp
ENCODING 223
SWIDTH 560 0
DWIDTH 7 0
BBX 6 9 0 0
BITMAP
44
44
6c
38
28
00
ec
44
44
ENDCHAR
STARTCHAR agrave
ENCODING 224
SWIDTH 560 0
DWIDTH 7 0
BBX 6 9 1 0
BITMAP
44
44
44
6c
38
08
10
00
ec
ENDCHAR
STARTCHAR aacute
ENCODING 225
SWIDTH 560 0
DWIDTH 7 0
BBX 6 9 1 0
BITMAP
44
28
10
10
10
10
38
e0
40
ENDCHAR
STARTCHAR acircumflex
ENCODING 226
SWIDTH 560 0
DWIDTH 7 0
BBX 6 9 1 0
BITMAP
78
44
44
78
40
e0
30
48
48
ENDCHAR
STARTCHAR atilde
ENCODING 227
SWIDTH 560 0
DWIDTH 7 0
BBX 6 9 1 0
BITMAP
48
50
48
44
54
d8
40
20
00
ENDCHAR
STARTCHAR adiaeresis
ENCODING 228
SWIDTH 560 0
DWIDTH 7 0
BBX 6 8 1 0
BITMAP
f0
08
78
88
88
74
10
20
ENDCHAR
STARTCHAR aring
ENCODING 229
SWIDTH 560 0
DWIDTH 7 0
BBX 6 9 1 0
BITMAP
00
f0
08
78
88
88
74
20
50
ENDCHAR
STARTCHAR ae
ENCODING 230
SWIDTH 560 0
DWIDTH 7 0
BBX 7 6 0 0
BITMAP
00
f0
08
78
88
88
ENDCHAR
STARTCHAR ccedilla
ENCODING 231
SWIDTH 560 0
DWIDTH 7 0
BBX 5 9 1 -3
BITMAP
70
28
50
00
f0
08
78
88
88
ENDCHAR
STARTCHAR egrave
ENCODING 232
SWIDTH 560 0
DWIDTH 7 0
BBX 5 9 1 0
BITMAP
70
50
00
f0
08
78
88
88
70
ENDCHAR
STARTCHAR eacute
ENCODING 233
SWIDTH 560 0
DWIDTH 7 0
BBX 5 9 1 0
BITMAP
20
50
20
f0
08
78
88
88
70
ENDCHAR
STARTCHAR ecircumflex
ENCODING 234
SWIDTH 560 0
DWIDTH 7 0
BBX 5 9 1 0
BITMAP
68
10
78
90
90
68
70
88
80
ENDCHAR
STARTCHAR ediaeresis
ENCODING 235
SWIDTH 560 0
DWIDTH 7 0
BBX 5 8 1 0
BITMAP
80
88
70
20
10
60
40
20
ENDCHAR
STARTCHAR igrave
ENCODING 236
SWIDTH 560 0
DWIDTH 7 0
BBX 5 9 1 0
BITMAP
00
70
88
f8
80
88
70
10
20
ENDCHAR
STARTCHAR iacute
ENCODING 237
SWIDTH 560 0
DWIDTH 7 0
BBX 5 9 1 0
BITMAP
00
70
88
f8
80
88
70
20
50
ENDCHAR
STARTCHAR icircumflex
ENCODING 238
SWIDTH 560 0
DWIDTH 7 0
BBX 5 9 1 0
BITMAP
00
70
88
f8
80
88
70
50
00
ENDCHAR
STARTCHAR idiaeresis
ENCODING 239
SWIDTH 560 0
DWIDTH 7 0
BBX 5 8 1 0
BITMAP
70
88
f8
80
88
70
40
20
ENDCHAR
STARTCHAR eth
ENCODING 240
SWIDTH 560 0
DWIDTH 7 0
BBX 5 10 1 0
BITMAP
00
e0
20
20
20
20
f8
10
20
00
ENDCHAR
STARTCHAR ntilde
ENCODING 241
SWIDTH 560 0
DWIDTH 7 0
BBX 7 9 0 0
BITMAP
e0
20
20
20
20
f8
20
50
00
ENDCHAR
STARTCHAR ograve
ENCODING 242
SWIDTH 560 0
DWIDTH 7 0
BBX 5 9 1 0
BITMAP
e0
20
20
20
20
f8
50
00
e0
ENDCHAR
STARTCHAR oacute
ENCODING 243
SWIDTH 560 0
DWIDTH 7 0
BBX 5 9 1 0
BITMAP
20
20
20
20
f8
c0
38
60
90
ENDCHAR
STARTCHAR ocircumflex
ENCODING 244
SWIDTH 560 0
DWIDTH 7 0
BBX 5 9 1 0
BITMAP
78
88
88
88
88
70
28
50
00
ENDCHAR
STARTCHAR otilde
ENCODING 245
SWIDTH 560 0
DWIDTH 7 0
BBX 5 9 1 0
BITMAP
b8
60
40
40
40
e0
40
20
00
ENDCHAR
STARTCHAR odiaeresis
ENCODING 246
SWIDTH 560 0
DWIDTH 7 0
BBX 5 8 1 0
BITMAP
70
88
88
88
88
70
20
40
ENDCHAR
STARTCHAR division
ENCODING 247
SWIDTH 560 0
DWIDTH 7 0
BBX 5 5 1 1
BITMAP
00
70
88
88
88
ENDCHAR
STARTCHAR oslash
ENCODING 248
SWIDTH 560 0
DWIDTH 7 0
BBX 5 8 1 -1
BITMAP
88
70
20
50
00
70
88
88
ENDCHAR
STARTCHAR ugrave
ENCODING 249
SWIDTH 560 0
DWIDTH 7 0
BBX 7 9 0 0
BITMAP
88
88
70
50
a0
00
70
88
88
ENDCHAR
STARTCHAR uacute
ENCODING 250
SWIDTH 560 0
DWIDTH 7 0
BBX 7 9 0 0
BITMAP
88
88
70
50
00
70
88
88
88
ENDCHAR
STARTCHAR ucircumflex
ENCODING 251
SWIDTH 560 0
DWIDTH 7 0
BBX 7 9 0 0
BITMAP
88
70
20
00
f8
00
20
08
70
ENDCHAR
STARTCHAR udiaeresis
ENCODING 252
SWIDTH 560 0
DWIDTH 7 0
BBX 7 8 0 0
BITMAP
98
a8
a8
c8
70
80
20
10
ENDCHAR
STARTCHAR yacute
ENCODING 253
SWIDTH 560 0
DWIDTH 7 0
BBX 7 12 0 -3
BITMAP
00
cc
44
44
44
44
3a
10
20
00
cc
44
ENDCHAR
STARTCHAR thorn
ENCODING 254
SWIDTH 560 0
DWIDTH 7 0
BBX 6 12 0 -3
BITMAP
44
44
44
38
10
28
00
cc
44
44
44
44
ENDCHAR
STARTCHAR ydiaeresis
ENCODING 255
SWIDTH 560 0
DWIDTH 7 0
BBX 7 11 0 -3
BITMAP
3a
28
00
cc
44
44
44
44
3a
08
10
ENDCHAR
ENDFONT
