/* XPM */
static char * server_xpm[] = {
"17 16 9 1",
" 	c None",
".	c #2D2F2F",
"+	c #7C8876",
"@	c #AEAEAC",
"#	c #60523D",
"$	c #EEEEEE",
"%	c #BEBEBE",
"&	c #B6B6B4",
"*	c #5AFE6C",
"                 ",
"     ........    ",
"    .+++@++@+#   ",
"   #$$$$$$$$@.   ",
"   .+++++++$@.   ",
"   .@$$$$$%$+.   ",
"   .#++++++$&.   ",
"   .@$$$$$&$+.   ",
"   .@++++*+$&.   ",
"   .@$$$$$@$+.   ",
"   .@@@@@@@$&.   ",
"   .%......$+.   ",
"   .&$$$$$$$&.   ",
"   .&......$+.   ",
"   .&$$$$$$$%.   ",
"   .......#...   "};
