/* XPM */
static char * win_xpm[] = {
"15 10 13 1",
" 	c None",
".	c #F7F7F7",
"+	c #D0D0D0",
"@	c #769694",
"#	c #5B9C9F",
"$	c #AFAFAF",
"%	c #383838",
"=	c #72827D",
"-	c #557872",
";	c #8D8D8D",
">	c #D8D8D8",
",	c #B2B2B2",
"'	c #787878",
".+@#######$+$+%",
">;=-------;;;;%",
">,,,,,,,,,,,,,%",
">,,,,,,,,,,,,,%",
">,,,,,,,,,,,,,%",
">,,,,,,,,,,,,,%",
">,,,,,,,,,,,,,%",
">,,,,,,,,,,,,,%",
">,,,,,,,,,,,,,%",
"'%%%%%%%%%%%%%%"};
