/* XPM */
static char * pgserver_xpm[] = {
"47 47 746 2",
"  	c None",
". 	c #484870",
"+ 	c #484873",
"@ 	c #484874",
"# 	c #484872",
"$ 	c #4D63A4",
"% 	c #4A5DA4",
"& 	c #465AA4",
"* 	c #4758A1",
"= 	c #48599C",
"- 	c #4B5D9B",
"; 	c #4A619C",
"> 	c #474772",
", 	c #4A63AB",
"' 	c #425CAD",
") 	c #3E58AA",
"! 	c #3952A5",
"~ 	c #3650A5",
"{ 	c #3851A8",
"] 	c #3A53A8",
"^ 	c #3E54A3",
"/ 	c #4056A2",
"( 	c #465CA7",
"_ 	c #4A63AD",
": 	c #4C65A8",
"< 	c #41416D",
"[ 	c #465DAC",
"} 	c #3E58AF",
"| 	c #3954AF",
"1 	c #3A54AC",
"2 	c #3A55AA",
"3 	c #3854AB",
"4 	c #3A57B0",
"5 	c #3E5BB3",
"6 	c #3E59AE",
"7 	c #3E55A5",
"8 	c #4254A1",
"9 	c #455AA8",
"0 	c #4C63AE",
"a 	c #5268A4",
"b 	c #4A5D8A",
"c 	c #455EA4",
"d 	c #4057A7",
"e 	c #3C55AA",
"f 	c #3C58AF",
"g 	c #3D58B0",
"h 	c #3F5AB0",
"i 	c #3F5AB1",
"j 	c #405BB0",
"k 	c #415FB5",
"l 	c #4563B8",
"m 	c #4865B8",
"n 	c #4A63B0",
"o 	c #4C5FA2",
"p 	c #485A97",
"q 	c #46578D",
"r 	c #3E4C75",
"s 	c #43436F",
"t 	c #484871",
"u 	c #465AA1",
"v 	c #4056A4",
"w 	c #3E54A4",
"x 	c #4058A8",
"y 	c #425BAE",
"z 	c #435DB1",
"A 	c #4460B4",
"B 	c #4661B2",
"C 	c #4A64B3",
"D 	c #4E69B4",
"E 	c #506AB0",
"F 	c #4F68A8",
"G 	c #4A6097",
"H 	c #415079",
"I 	c #383965",
"J 	c #44569E",
"K 	c #3E529F",
"L 	c #4054A1",
"M 	c #4257A2",
"N 	c #435AA5",
"O 	c #445EAC",
"P 	c #4A64B1",
"Q 	c #4F68B0",
"R 	c #5069AA",
"S 	c #4E669E",
"T 	c #4B5E8C",
"U 	c #3C4973",
"V 	c #353663",
"W 	c #445BA8",
"X 	c #3C51A0",
"Y 	c #3C4F9C",
"Z 	c #41549F",
"` 	c #465AA3",
" .	c #485EA6",
"..	c #4E65A9",
"+.	c #50659F",
"@.	c #475A88",
"#.	c #313E6A",
"$.	c #40406C",
"%.	c #435DA0",
"&.	c #425AAC",
"*.	c #3E56A4",
"=.	c #4256A0",
"-.	c #485AA3",
";.	c #4C5FA7",
">.	c #5164A7",
",.	c #506092",
"'.	c #333563",
").	c #3E3F6D",
"!.	c #393A6A",
"~.	c #363869",
"{.	c #373968",
"].	c #3A3B6A",
"^.	c #434370",
"/.	c #4A64AA",
"(.	c #4258A6",
"_.	c #4257A0",
":.	c #485CA3",
"<.	c #4E5EA7",
"[.	c #5063A9",
"}.	c #50629D",
"|.	c #313463",
"1.	c #38396A",
"2.	c #38386B",
"3.	c #A8B3C2",
"4.	c #A7B0C4",
"5.	c #A3ADC6",
"6.	c #A0ABC4",
"7.	c #9EAAC2",
"8.	c #909EBC",
"9.	c #6E86B6",
"0.	c #516DB5",
"a.	c #445AA4",
"b.	c #465CA2",
"c.	c #4C60A8",
"d.	c #5267A8",
"e.	c #485886",
"f.	c #37386A",
"g.	c #A8B4C4",
"h.	c #A3A9B9",
"i.	c #9CA1B4",
"j.	c #96A0B8",
"k.	c #92A1BB",
"l.	c #93A2BB",
"m.	c #929FBA",
"n.	c #8091B4",
"o.	c #617BB2",
"p.	c #506AB4",
"q.	c #4C64B4",
"r.	c #4860AE",
"s.	c #465CA6",
"t.	c #4C60A6",
"u.	c #5464A0",
"v.	c #303564",
"w.	c #3A3A6B",
"x.	c #A3AEC3",
"y.	c #98A6BB",
"z.	c #959EB1",
"A.	c #929AAF",
"B.	c #909BB3",
"C.	c #92A0B8",
"D.	c #93A2BC",
"E.	c #929EBA",
"F.	c #7C8CB1",
"G.	c #5974AE",
"H.	c #4A66B0",
"I.	c #4C64AF",
"J.	c #4D64AC",
"K.	c #4D64AE",
"L.	c #5167AD",
"M.	c #525F94",
"N.	c #9DA6BB",
"O.	c #939FB5",
"P.	c #919EB4",
"Q.	c #95A1B9",
"R.	c #9BA8BF",
"S.	c #9EABC4",
"T.	c #9AA6BF",
"U.	c #8090B5",
"V.	c #5A74B3",
"W.	c #4C68B1",
"X.	c #4D64AD",
"Y.	c #4E64AA",
"Z.	c #4F69B0",
"`.	c #5670B2",
" +	c #506392",
".+	c #3D3D6B",
"++	c #A5AEBD",
"@+	c #9BA3B6",
"#+	c #99A1B6",
"$+	c #98A3BA",
"%+	c #9BA8BC",
"&+	c #A4AEC1",
"*+	c #A1ACBE",
"=+	c #98A4B5",
"-+	c #8E9CAE",
";+	c #7A8DB2",
">+	c #5D78B8",
",+	c #4F6BB4",
"'+	c #4E66B0",
")+	c #4F67B1",
"!+	c #506BB2",
"~+	c #5B76B4",
"{+	c #6478A4",
"]+	c #38396B",
"^+	c #A4A9B7",
"/+	c #98A0B2",
"(+	c #99A4B8",
"_+	c #A2ABBE",
":+	c #A6B1BF",
"<+	c #949DAA",
"[+	c #6A727D",
"}+	c #30306C",
"|+	c #313262",
"1+	c #5571B3",
"2+	c #5170B9",
"3+	c #506DB8",
"4+	c #506BB7",
"5+	c #546EB5",
"6+	c #647BB5",
"7+	c #7D8CB2",
"8+	c #A4ACB9",
"9+	c #A2A4B3",
"0+	c #9CA2B4",
"a+	c #A2A9BA",
"b+	c #AEB2BF",
"c+	c #9EA5AE",
"d+	c #30306A",
"e+	c #303069",
"f+	c #5069AC",
"g+	c #5574BC",
"h+	c #5575BC",
"i+	c #5672B8",
"j+	c #5C74B7",
"k+	c #6E82B6",
"l+	c #8B98B6",
"m+	c #434372",
"n+	c #424270",
"o+	c #A1A4B3",
"p+	c #A0A3B3",
"q+	c #A6A8B8",
"r+	c #ACAFBB",
"s+	c #828890",
"t+	c #30306B",
"u+	c #313260",
"v+	c #526BAE",
"w+	c #5973BA",
"x+	c #5E78BD",
"y+	c #6078B9",
"z+	c #637AB8",
"A+	c #7386B4",
"B+	c #959EB6",
"C+	c #959EAF",
"D+	c #A0AABC",
"E+	c #9BA2B2",
"F+	c #999FB0",
"G+	c #A2A5B5",
"H+	c #A8ABB8",
"I+	c #737B85",
"J+	c #313162",
"K+	c #556BAA",
"L+	c #5D73B2",
"M+	c #667AB8",
"N+	c #697AB8",
"O+	c #697DB7",
"P+	c #768AB5",
"Q+	c #9AA2B9",
"R+	c #9DA5B4",
"S+	c #5E6F9B",
"T+	c #6E7EAF",
"U+	c #7684B4",
"V+	c #7A89B5",
"W+	c #7C8AB7",
"X+	c #7889BA",
"Y+	c #7588BB",
"Z+	c #7387BC",
"`+	c #7086BA",
" @	c #6A7DAE",
".@	c #A3AFC4",
"+@	c #9DA8BC",
"@@	c #9CA8B8",
"#@	c #A6ACBB",
"$@	c #AAB0BE",
"%@	c #7E8A98",
"&@	c #303066",
"*@	c #5666A2",
"=@	c #5E71AC",
"-@	c #6A7CB7",
";@	c #6A7CB9",
">@	c #6A7FB8",
",@	c #7A8EB7",
"'@	c #9CA7BC",
")@	c #9EA6B4",
"!@	c #4D5673",
"~@	c #7585BA",
"{@	c #8897C8",
"]@	c #929FCD",
"^@	c #8FA0D0",
"/@	c #90A3D3",
"(@	c #92A4D6",
"_@	c #90A3D5",
":@	c #8D9ED0",
"<@	c #7C89BA",
"[@	c #45527A",
"}@	c #9EB2C5",
"|@	c #AAB6CA",
"1@	c #A8B1C4",
"2@	c #A6B0C0",
"3@	c #AAB3C2",
"4@	c #AEB6C7",
"5@	c #9AA9B8",
"6@	c #313165",
"7@	c #425686",
"8@	c #5868A2",
"9@	c #6274B0",
"0@	c #677CB8",
"a@	c #677DBA",
"b@	c #6B80BA",
"c@	c #8191BA",
"d@	c #A1AAC3",
"e@	c #9EA7B8",
"f@	c #4C5673",
"g@	c #6C80AE",
"h@	c #8999C9",
"i@	c #96A6D4",
"j@	c #99ACDA",
"k@	c #9AADDC",
"l@	c #98ABDA",
"m@	c #96A4D3",
"n@	c #7E88B8",
"o@	c #313464",
"p@	c #444470",
"q@	c #A6B4C6",
"r@	c #AEB6C8",
"s@	c #AEB3C3",
"t@	c #AEB2C4",
"u@	c #B0BACA",
"v@	c #AFBACB",
"w@	c #4B555F",
"x@	c #31345F",
"y@	c #313167",
"z@	c #546796",
"A@	c #6274AF",
"B@	c #677BBA",
"C@	c #677DBC",
"D@	c #6981BE",
"E@	c #7186BD",
"F@	c #8895BC",
"G@	c #A5AEC6",
"H@	c #9BA5B8",
"I@	c #3D456D",
"J@	c #41426E",
"K@	c #8FA1CD",
"L@	c #9CB1DD",
"M@	c #9CB0DE",
"N@	c #9BAED8",
"O@	c #98A3CF",
"P@	c #737EAA",
"Q@	c #40406D",
"R@	c #A7B2C4",
"S@	c #ACB2C4",
"T@	c #AEB1C0",
"U@	c #AFB2C3",
"V@	c #AFB6CA",
"W@	c #B0BACD",
"X@	c #B2BDD1",
"Y@	c #B3BDD2",
"Z@	c #A9B8CA",
"`@	c #9AA9BC",
" #	c #828DAD",
".#	c #6B7AB1",
"+#	c #687ABA",
"@#	c #6B7FBE",
"##	c #6C82C1",
"$#	c #7188C4",
"%#	c #778CC1",
"&#	c #8A98BE",
"*#	c #A4ADC5",
"=#	c #929CAD",
"-#	c #7B92BF",
";#	c #9EB2DD",
">#	c #A2B4DE",
",#	c #9EB0D9",
"'#	c #91A0CC",
")#	c #5E6A92",
"!#	c #3B3C6A",
"~#	c #A7B2C5",
"{#	c #AAB4C6",
"]#	c #AEB4C5",
"^#	c #B0B5C4",
"/#	c #B0B8C9",
"(#	c #B0BCD0",
"_#	c #B3BED3",
":#	c #B9C0D3",
"<#	c #B8C2D3",
"[#	c #ACBBD0",
"}#	c #8F9FC3",
"|#	c #6E83BE",
"1#	c #687FC1",
"2#	c #6B82C1",
"3#	c #7287C4",
"4#	c #798CC6",
"5#	c #7C8EC2",
"6#	c #8B99BC",
"7#	c #A0A8BC",
"8#	c #7F8694",
"9#	c #758CBB",
"0#	c #A2B3DD",
"a#	c #AAB9DF",
"b#	c #A2B4DC",
"c#	c #8596C4",
"d#	c #3E4973",
"e#	c #38386A",
"f#	c #ABB5C5",
"g#	c #AFB8C9",
"h#	c #B0B9C8",
"i#	c #B2BAC8",
"j#	c #B4BECF",
"k#	c #B9C3D3",
"l#	c #BCC4D3",
"m#	c #BCC4D7",
"n#	c #B0BCD4",
"o#	c #90A4CB",
"p#	c #718CC9",
"q#	c #6F89CC",
"r#	c #7089CB",
"s#	c #748BC9",
"t#	c #7C8DC6",
"u#	c #7F8EC1",
"v#	c #8794B9",
"w#	c #8D93A6",
"x#	c #40436F",
"y#	c #869AC5",
"z#	c #A9B8DF",
"A#	c #AEBBE1",
"B#	c #A3B2DC",
"C#	c #7284B4",
"D#	c #3E3E69",
"E#	c #98AABA",
"F#	c #AEB8C6",
"G#	c #AFB9C6",
"H#	c #B0BAC8",
"I#	c #B2BCCA",
"J#	c #B7BCC8",
"K#	c #B8BECB",
"L#	c #BAC2CE",
"M#	c #BAC4D2",
"N#	c #BBC4D6",
"O#	c #B2BCD5",
"P#	c #91A6D0",
"Q#	c #7492D1",
"R#	c #7390D4",
"S#	c #7991D3",
"T#	c #7E93CF",
"U#	c #8092C9",
"V#	c #7D8DC1",
"W#	c #7484B1",
"X#	c #606B84",
"Y#	c #9EB0D5",
"Z#	c #AEBDE2",
"`#	c #ADBBE2",
" $	c #97A8D4",
".$	c #566694",
"+$	c #9EAEC0",
"@$	c #AEB8C7",
"#$	c #B0B9C7",
"$$	c #B2BBCA",
"%$	c #B6BCCC",
"&$	c #B8BCC9",
"*$	c #AFB4BE",
"=$	c #A6AAB4",
"-$	c #A3AAB8",
";$	c #A3ABBD",
">$	c #A0AAC2",
",$	c #8699C4",
"'$	c #708CCB",
")$	c #718FD0",
"!$	c #7A90CE",
"~$	c #7E90C9",
"{$	c #7A8EC4",
"]$	c #7386BB",
"^$	c #6878A8",
"/$	c #485476",
"($	c #95A2C9",
"_$	c #AEBBDF",
":$	c #B0C0E4",
"<$	c #A8BAE0",
"[$	c #7F94C0",
"}$	c #2D3463",
"|$	c #474774",
"1$	c #A2B2C6",
"2$	c #B0BACC",
"3$	c #B1BCCA",
"4$	c #B4BCCC",
"5$	c #B8BBCC",
"6$	c #ABAEBB",
"7$	c #7F838C",
"8$	c #393B6D",
"9$	c #35386A",
"0$	c #393E6C",
"a$	c #4B5974",
"b$	c #53668A",
"c$	c #5E75AD",
"d$	c #6985BC",
"e$	c #7188BD",
"f$	c #7386BD",
"g$	c #7186BC",
"h$	c #7687BC",
"i$	c #6877A6",
"j$	c #353667",
"k$	c #B7BEDD",
"l$	c #BCC5E3",
"m$	c #B4C4E4",
"n$	c #A0B3D9",
"o$	c #62749D",
"p$	c #A8B4CA",
"q$	c #B4BDD2",
"r$	c #B7BFD4",
"s$	c #B7BFD2",
"t$	c #B1B6C8",
"u$	c #8A8A96",
"v$	c #4F6295",
"w$	c #6C82B8",
"x$	c #738AC0",
"y$	c #748BC5",
"z$	c #7990C8",
"A$	c #8298CF",
"B$	c #8CA0D4",
"C$	c #8C9ED0",
"D$	c #7C8EBE",
"E$	c #343767",
"F$	c #B8C4E0",
"G$	c #C5CCE5",
"H$	c #C6CBE5",
"I$	c #B7C2E2",
"J$	c #8C9CC3",
"K$	c #333966",
"L$	c #B0B7CA",
"M$	c #B8C1D6",
"N$	c #BAC6DB",
"O$	c #B9C4D9",
"P$	c #A3ADC0",
"Q$	c #4E5272",
"R$	c #697FB9",
"S$	c #748FC8",
"T$	c #7B96CF",
"U$	c #839CD4",
"V$	c #8CA4D9",
"W$	c #94A9DB",
"X$	c #98ABDB",
"Y$	c #96AADA",
"Z$	c #94A5D4",
"`$	c #8E9ECB",
" %	c #8597C2",
".%	c #788DB6",
"+%	c #6880A8",
"@%	c #474773",
"#%	c #393A67",
"$%	c #373B69",
"%%	c #BCC8E6",
"&%	c #C8D2EB",
"*%	c #CAD1EA",
"=%	c #C8CDE7",
"-%	c #AEB8D8",
";%	c #66749A",
">%	c #3E3E6B",
",%	c #B3BAC7",
"'%	c #BAC2D1",
")%	c #BCC8D8",
"!%	c #B8C4D8",
"~%	c #909EB1",
"{%	c #5D74B2",
"]%	c #738DC8",
"^%	c #8098D2",
"/%	c #88A1D7",
"(%	c #90A7D9",
"_%	c #97AADA",
":%	c #9CB0DF",
"<%	c #A3B3DF",
"[%	c #A6B6DF",
"}%	c #A8B7DE",
"|%	c #A8B6DC",
"1%	c #A4B5DA",
"2%	c #A4B3D8",
"3%	c #A5B4D6",
"4%	c #A8B7D7",
"5%	c #ACBBDA",
"6%	c #B6C4E1",
"7%	c #C6D2EC",
"8%	c #CFD9F1",
"9%	c #D2DAF0",
"0%	c #D0D6EE",
"a%	c #C4CAE5",
"b%	c #919BBE",
"c%	c #313462",
"d%	c #383968",
"e%	c #B2BBCC",
"f%	c #B9C0CD",
"g%	c #BBC3D0",
"h%	c #B4BCCE",
"i%	c #7D889B",
"j%	c #677FBA",
"k%	c #7D94CC",
"l%	c #8A9ED2",
"m%	c #92A5D4",
"n%	c #96AAD7",
"o%	c #9AAEDC",
"p%	c #9FB2DE",
"q%	c #A8B7E1",
"r%	c #AEBEE2",
"s%	c #B0C0E3",
"t%	c #B3C3E5",
"u%	c #BAC8E8",
"v%	c #C1CCEA",
"w%	c #C5CFEA",
"x%	c #C8D1EA",
"y%	c #CED5EC",
"z%	c #D6DEF3",
"A%	c #D8DEF2",
"B%	c #D2D8EF",
"C%	c #B1BAD8",
"D%	c #606C8E",
"E%	c #91A5BF",
"F%	c #B5BFD4",
"G%	c #BCC4D4",
"H%	c #BDC3CF",
"I%	c #ACB2C0",
"J%	c #677281",
"K%	c #5D72AA",
"L%	c #7488BD",
"M%	c #8597C8",
"N%	c #8DA2D2",
"O%	c #96AAD9",
"P%	c #A9BAE2",
"Q%	c #AEBDE3",
"R%	c #B1C0E4",
"S%	c #B6C4E6",
"T%	c #B9C8E8",
"U%	c #BFCDEC",
"V%	c #C6D3EE",
"W%	c #CAD6F0",
"X%	c #CED7EF",
"Y%	c #D2D9EE",
"Z%	c #D5DCF0",
"`%	c #D9DFF3",
" &	c #D9DEF2",
".&	c #C6CEE6",
"+&	c #8891B2",
"@&	c #3E3E6A",
"#&	c #98ABC3",
"$&	c #C2CADB",
"%&	c #BFC5D2",
"&&	c #A4A8B5",
"*&	c #3D426D",
"=&	c #586A9C",
"-&	c #6C83B5",
";&	c #8197C8",
">&	c #95A8D5",
",&	c #A4B4DE",
"'&	c #ACBBE2",
")&	c #B0C0E5",
"!&	c #B7C6E8",
"~&	c #BCCAEA",
"{&	c #C2D0EC",
"]&	c #C8D4EF",
"^&	c #CDD9F1",
"/&	c #D2DCF2",
"(&	c #D6DEF0",
"_&	c #D8DEF1",
":&	c #D0D4EC",
"<&	c #9EA8C8",
"[&	c #434A71",
"}&	c #9FAEC3",
"|&	c #BAC4D6",
"1&	c #C4CADA",
"2&	c #BEC3D0",
"3&	c #999DAA",
"4&	c #445C86",
"5&	c #6073A0",
"6&	c #7A8AB8",
"7&	c #909ECA",
"8&	c #9FAED6",
"9&	c #A9BADE",
"0&	c #B4C2E4",
"a&	c #BDCAE8",
"b&	c #C4CFEB",
"c&	c #CBD5EE",
"d&	c #D0D9EF",
"e&	c #D4DAEE",
"f&	c #D4D8ED",
"g&	c #CAD1E9",
"h&	c #A8AFCE",
"i&	c #596485",
"j&	c #A8B2C4",
"k&	c #BBC4D3",
"l&	c #C0C6D3",
"m&	c #8C92A2",
"n&	c #425279",
"o&	c #56668F",
"p&	c #677AA4",
"q&	c #798BB6",
"r&	c #8C9BC2",
"s&	c #99A6CC",
"t&	c #A4B0D2",
"u&	c #AAB5D3",
"v&	c #ABB5D2",
"w&	c #A2ACC9",
"x&	c #8892B4",
"y&	c #565E80",
"z&	c #BFC6D5",
"A&	c #C0C6D2",
"B&	c #B4B8C6",
"C&	c #7E8495",
"D&	c #313B68",
"E&	c #42567A",
"F&	c #485A7C",
"G&	c #445476",
"H&	c #313665",
"I&	c #ACB6C8",
"J&	c #BEC8D7",
"K&	c #C2C8D4",
"L&	c #B2B5C1",
"M&	c #737684",
"N&	c #3E3E6C",
"O&	c #ADB8CB",
"P&	c #BFC8D6",
"Q&	c #C2C8D3",
"R&	c #ACB1BC",
"S&	c #626976",
"T&	c #3C3C6B",
"U&	c #B1BBCC",
"V&	c #C0C8D6",
"W&	c #A2A7B4",
"X&	c #383C6C",
"Y&	c #3B3B6C",
"Z&	c #B0BBCE",
"`&	c #BAC2D0",
" *	c #9598A4",
".*	c #B1BACE",
"+*	c #B9C6D8",
"@*	c #808491",
"#*	c #A6AEC4",
"$*	c #B2BACC",
"%*	c #9FA5B5",
"&*	c #505472",
"**	c #7F8999",
"=*	c #656C77",
"                                                . . . . . . . . . . .                         ",
"                                            . . . + + + @ + + + + # . . . .                   ",
"                                          . . + + + $ % & * = - ; + + + # . . .               ",
"                                      . . . + > , ' ) ! ~ { ] ^ / ( _ : + + # . .             ",
"                                    . . + + < [ } | 1 2 3 4 5 6 7 8 9 0 a b # # .             ",
"                                  . . + + c d e f g h i j k l m n o p q r s t # .             ",
"                                . . + + u v w x y z A B C D E F G H I # t t t . .             ",
"                              . . + + J K L M N O P Q R S T U V # t t t . . . .               ",
"                              . # + W X Y Z `  ...+.@.#.$.# t t t . . . .                     ",
"                . . . . . . . . + %.&.*.=.-.;.>.,.'.t t t t . . . .                           ",
"            . . . + ).!.~.{.].^.@ /.(._.:.<.[.}.|.t t . . . .                                 ",
"          . . + 1.2.3.4.5.6.7.8.9.0.[ a.b.c.d.e.t t . .                                       ",
"          . + f.g.h.i.j.k.l.m.n.o.p.q.r.s.t.u.v.t . .                                         ",
"        . . w.x.y.z.A.B.C.D.E.F.G.H.I.J.K.L.M.+ t .                                           ",
"        . @ f.N.j.O.P.Q.R.S.T.U.V.W.X.Y.Z.`. +# t .                                           ",
"      . . .+++@+#+$+%+&+*+=+-+;+>+,+'+)+!+~+{++ . .                                           ",
"      . + ]+^+/+(+_+:+<+[+}+}+|+1+2+3+4+5+6+7+@ . .                                           ",
"      . + 8+9+0+a+b+c+}+d+d+e+e+f+g+h+i+j+k+l+m++ .         . . . . . . . . . . . . . . .     ",
"      . n+8+o+p+q+r+s+t+e+e+e+u+v+w+x+y+z+A+B+C++ . .       . # + + + + + + + + + + + # . . . ",
"    . . ].D+E+F+G+H+I+t+e+e+e+J+K+L+M+N+O+P+Q+R++ # .       . # + S+T+U+V+W+X+Y+Z+`+ @+ + # . ",
"    . + ~..@+@@@#@$@%@t+e+e+t+&@*@=@-@;@>@,@'@)@!@# .       . . # + > ~@{@]@^@/@(@_@:@<@[@t . ",
"    . + }@|@1@2@3@4@5@6@e+e+t+7@8@9@0@a@b@c@d@e@f@# .         . . . # + g@h@i@j@k@l@m@n@o@. . ",
"    . p@q@r@s@t@r@u@v@w@x@y@}+z@A@B@C@D@E@F@G@H@I@# .             . . # + J@K@L@M@N@O@P@p@t . ",
"    . Q@R@S@T@U@V@W@X@Y@Z@`@ #.#+#@###$#%#&#*#=#+ # .               . . . + -#;#>#,#'#)#t t . ",
"  . . !#~#{#]#^#/#(#_#:#<#[#}#|#1#2#3#4#5#6#7#8## . .                   . + 9#0#a#b#c#d#t . . ",
"  . + e#f#4@g#h#i#j#k#l#m#n#o#p#q#r#s#t#u#v#w#x#t .                   . . + y#z#A#B#C#D#t .   ",
"  . + E#F#G#H#I#J#K#L#M#N#O#P#Q#R#S#T#U#V#W#X## t .                   . + J@Y#Z#`# $.$t t .   ",
"  . + +$@$#$$$%$&$*$=$-$;$>$,$'$)$!$~${$]$^$/$t . .                 . . + ($_$:$<$[$}$t . .   ",
"  . |$1$2$3$4$5$6$7$8$9$0$a$b$c$d$e$f$g$g$h$i$+ # . . . . . .     . . + j$k$l$m$n$o$t t .     ",
"  . ^.p$q$r$s$t$u$+ t # # # # v$w$x$y$z$A$B$C$D$s + + + # # . . . . + E$F$G$H$I$J$K$t . .     ",
"  . n+L$M$N$O$P$Q$# . . . . # + R$S$T$U$V$W$X$Y$Z$`$ %.%+%@%@ + p@#%$%%%&%*%=%-%;%t t .       ",
". . >%,%'%)%!%~%+ # .     . . + {%]%^%/%(%_%k@:%<%[%}%|%1%2%3%4%5%6%7%8%9%0%a%b%c%t . .       ",
". + d%e%f%g%h%i%# . .       . # + j%k%l%m%n%o%p%q%`#r%s%t%u%v%w%x%y%9%z%A%B%C%D%t t .         ",
". + E%F%G%H%I%J%# .         . . # + K%L%M%N%O%p%P%Q%R%S%T%U%V%W%X%Y%Z%`% &.&+&@&t . .         ",
". + #&O$$&%&&&*&# .           . . # # + =&-&;&>&,&'&)&!&~&{&]&^&/&(&_& &:&<&[&t t .           ",
". + }&|&1&2&3&+ # .             . . . # # # 4&5&6&7&8&9&0&a&b&c&d&e&f&g&h&i&t t . .           ",
". @ j&k&l&K#m&+ . .                 . . . # # # # n&o&p&q&r&s&t&u&v&w&x&y&t . . .             ",
". @ ]#z&A&B&C&# .                       . . . . # # t # # # D&E&F&G&H&> t t . .               ",
". n+I&J&K&L&M&# .                             . . . . . . t # # # # # t t . .                 ",
". N&O&P&Q&R&S&# .                                       . . . . . . . . . .                   ",
". T&U&V&A&W&X&# .                                                                             ",
". Y&Z&)%`& *+ # .                                                                             ",
". w..*+*u@@*# . .                                                                             ",
". ).#*$*%*&*t .                                                                               ",
". + @ **=*# t .                                                                               ",
". . # # t t . .                                                                               ",
"  . . . . . .                                                                                 "};
