/* XPM */
static char * pgserver_xpm[] = {
"48 48 701 2",
"  	c None",
". 	c #000000",
"+ 	c #4D63A4",
"@ 	c #4A5DA4",
"# 	c #465AA4",
"$ 	c #4758A1",
"% 	c #48599C",
"& 	c #4B5D9B",
"* 	c #4A619C",
"= 	c #4A63AB",
"- 	c #425CAD",
"; 	c #3E58AA",
"> 	c #3952A5",
", 	c #3650A5",
"' 	c #3851A8",
") 	c #3A53A8",
"! 	c #3E54A3",
"~ 	c #4056A2",
"{ 	c #465CA7",
"] 	c #4A63AD",
"^ 	c #4C65A8",
"/ 	c #465DAC",
"( 	c #3E58AF",
"_ 	c #3954AF",
": 	c #3A54AC",
"< 	c #3A55AA",
"[ 	c #3854AB",
"} 	c #3A57B0",
"| 	c #3E5BB3",
"1 	c #3E59AE",
"2 	c #3E55A5",
"3 	c #4254A1",
"4 	c #455AA8",
"5 	c #4C63AE",
"6 	c #5268A4",
"7 	c #4A5D8A",
"8 	c #455EA4",
"9 	c #4057A7",
"0 	c #3C55AA",
"a 	c #3C58AF",
"b 	c #3D58B0",
"c 	c #3F5AB0",
"d 	c #3F5AB1",
"e 	c #405BB0",
"f 	c #415FB5",
"g 	c #4563B8",
"h 	c #4865B8",
"i 	c #4A63B0",
"j 	c #4C5FA2",
"k 	c #485A97",
"l 	c #46578D",
"m 	c #3F4E76",
"n 	c #2B3852",
"o 	c #465AA1",
"p 	c #4056A4",
"q 	c #3E54A4",
"r 	c #4058A8",
"s 	c #425BAE",
"t 	c #435DB1",
"u 	c #4460B4",
"v 	c #4661B2",
"w 	c #4A64B3",
"x 	c #4E69B4",
"y 	c #506AB0",
"z 	c #4F68A8",
"A 	c #4A6097",
"B 	c #415079",
"C 	c #303D5A",
"D 	c #44569E",
"E 	c #3E529F",
"F 	c #4054A1",
"G 	c #4257A2",
"H 	c #435AA5",
"I 	c #445EAC",
"J 	c #4A64B1",
"K 	c #4F68B0",
"L 	c #5069AA",
"M 	c #4E669E",
"N 	c #4B5E8C",
"O 	c #404F74",
"P 	c #32405D",
"Q 	c #445BA8",
"R 	c #3C51A0",
"S 	c #3C4F9C",
"T 	c #41549F",
"U 	c #465AA3",
"V 	c #485EA6",
"W 	c #4E65A9",
"X 	c #50659F",
"Y 	c #475A88",
"Z 	c #394B6F",
"` 	c #2A3C54",
" .	c #435DA0",
"..	c #425AAC",
"+.	c #3E56A4",
"@.	c #4256A0",
"#.	c #485AA3",
"$.	c #4C5FA7",
"%.	c #5164A7",
"&.	c #506092",
"*.	c #384460",
"=.	c #4A64AA",
"-.	c #4258A6",
";.	c #4257A0",
">.	c #485CA3",
",.	c #4E5EA7",
"'.	c #5063A9",
").	c #50629D",
"!.	c #394462",
"~.	c #A8B3C2",
"{.	c #A7B0C4",
"].	c #A3ADC6",
"^.	c #A0ABC4",
"/.	c #9EAAC2",
"(.	c #909EBC",
"_.	c #6E86B6",
":.	c #516DB5",
"<.	c #445AA4",
"[.	c #465CA2",
"}.	c #4C60A8",
"|.	c #5267A8",
"1.	c #485886",
"2.	c #A8B4C4",
"3.	c #A3A9B9",
"4.	c #9CA1B4",
"5.	c #96A0B8",
"6.	c #92A1BB",
"7.	c #93A2BB",
"8.	c #929FBA",
"9.	c #8091B4",
"0.	c #617BB2",
"a.	c #506AB4",
"b.	c #4C64B4",
"c.	c #4860AE",
"d.	c #465CA6",
"e.	c #4C60A6",
"f.	c #5464A0",
"g.	c #3C4768",
"h.	c #A3AEC3",
"i.	c #98A6BB",
"j.	c #959EB1",
"k.	c #929AAF",
"l.	c #909BB3",
"m.	c #92A0B8",
"n.	c #93A2BC",
"o.	c #929EBA",
"p.	c #7C8CB1",
"q.	c #5974AE",
"r.	c #4A66B0",
"s.	c #4C64AF",
"t.	c #4D64AC",
"u.	c #4D64AE",
"v.	c #5167AD",
"w.	c #525F94",
"x.	c #2C354C",
"y.	c #9DA6BB",
"z.	c #939FB5",
"A.	c #919EB4",
"B.	c #95A1B9",
"C.	c #9BA8BF",
"D.	c #9EABC4",
"E.	c #9AA6BF",
"F.	c #8090B5",
"G.	c #5A74B3",
"H.	c #4C68B1",
"I.	c #4D64AD",
"J.	c #4E64AA",
"K.	c #4F69B0",
"L.	c #5670B2",
"M.	c #506392",
"N.	c #A5AEBD",
"O.	c #9BA3B6",
"P.	c #99A1B6",
"Q.	c #98A3BA",
"R.	c #9BA8BC",
"S.	c #A4AEC1",
"T.	c #A1ACBE",
"U.	c #98A4B5",
"V.	c #8E9CAE",
"W.	c #7A8DB2",
"X.	c #5D78B8",
"Y.	c #4F6BB4",
"Z.	c #4E66B0",
"`.	c #4F67B1",
" +	c #506BB2",
".+	c #5B76B4",
"++	c #6478A4",
"@+	c #A4A9B7",
"#+	c #98A0B2",
"$+	c #99A4B8",
"%+	c #A2ABBE",
"&+	c #A6B1BF",
"*+	c #949DAA",
"=+	c #6A727D",
"-+	c #5571B3",
";+	c #5170B9",
">+	c #506DB8",
",+	c #506BB7",
"'+	c #546EB5",
")+	c #647BB5",
"!+	c #7D8CB2",
"~+	c #A4ACB9",
"{+	c #A2A4B3",
"]+	c #9CA2B4",
"^+	c #A2A9BA",
"/+	c #AEB2BF",
"(+	c #9EA5AE",
"_+	c #5069AC",
":+	c #5574BC",
"<+	c #5575BC",
"[+	c #5672B8",
"}+	c #5C74B7",
"|+	c #6E82B6",
"1+	c #8B98B6",
"2+	c #A1A4B3",
"3+	c #A0A3B3",
"4+	c #A6A8B8",
"5+	c #ACAFBB",
"6+	c #828890",
"7+	c #526BAE",
"8+	c #5973BA",
"9+	c #5E78BD",
"0+	c #6078B9",
"a+	c #637AB8",
"b+	c #7386B4",
"c+	c #959EB6",
"d+	c #959EAF",
"e+	c #A0AABC",
"f+	c #9BA2B2",
"g+	c #999FB0",
"h+	c #A2A5B5",
"i+	c #A8ABB8",
"j+	c #737B85",
"k+	c #556BAA",
"l+	c #5D73B2",
"m+	c #667AB8",
"n+	c #697AB8",
"o+	c #697DB7",
"p+	c #768AB5",
"q+	c #9AA2B9",
"r+	c #9DA5B4",
"s+	c #5E6F9B",
"t+	c #6E7EAF",
"u+	c #7684B4",
"v+	c #7A89B5",
"w+	c #7C8AB7",
"x+	c #7889BA",
"y+	c #7588BB",
"z+	c #7387BC",
"A+	c #7086BA",
"B+	c #6A7DAE",
"C+	c #A3AFC4",
"D+	c #9DA8BC",
"E+	c #9CA8B8",
"F+	c #A6ACBB",
"G+	c #AAB0BE",
"H+	c #7E8A98",
"I+	c #5666A2",
"J+	c #5E71AC",
"K+	c #6A7CB7",
"L+	c #6A7CB9",
"M+	c #6A7FB8",
"N+	c #7A8EB7",
"O+	c #9CA7BC",
"P+	c #9EA6B4",
"Q+	c #5A6672",
"R+	c #7585BA",
"S+	c #8897C8",
"T+	c #929FCD",
"U+	c #8FA0D0",
"V+	c #90A3D3",
"W+	c #92A4D6",
"X+	c #90A3D5",
"Y+	c #8D9ED0",
"Z+	c #7C89BA",
"`+	c #45527A",
" @	c #9EB2C5",
".@	c #AAB6CA",
"+@	c #A8B1C4",
"@@	c #A6B0C0",
"#@	c #AAB3C2",
"$@	c #AEB6C7",
"%@	c #9AA9B8",
"&@	c #425686",
"*@	c #5868A2",
"=@	c #6274B0",
"-@	c #677CB8",
";@	c #677DBA",
">@	c #6B80BA",
",@	c #8191BA",
"'@	c #A1AAC3",
")@	c #9EA7B8",
"!@	c #596572",
"~@	c #6C80AE",
"{@	c #8999C9",
"]@	c #96A6D4",
"^@	c #99ACDA",
"/@	c #9AADDC",
"(@	c #98ABDA",
"_@	c #96A4D3",
":@	c #7E88B8",
"<@	c #3E4666",
"[@	c #A6B4C6",
"}@	c #AEB6C8",
"|@	c #AEB3C3",
"1@	c #AEB2C4",
"2@	c #B0BACA",
"3@	c #AFBACB",
"4@	c #546796",
"5@	c #6274AF",
"6@	c #677BBA",
"7@	c #677DBC",
"8@	c #6981BE",
"9@	c #7186BD",
"0@	c #8895BC",
"a@	c #A5AEC6",
"b@	c #9BA5B8",
"c@	c #515E6D",
"d@	c #8FA1CD",
"e@	c #9CB1DD",
"f@	c #9CB0DE",
"g@	c #9BAED8",
"h@	c #98A3CF",
"i@	c #737EAA",
"j@	c #2D3651",
"k@	c #A7B2C4",
"l@	c #ACB2C4",
"m@	c #AEB1C0",
"n@	c #AFB2C3",
"o@	c #AFB6CA",
"p@	c #B0BACD",
"q@	c #B2BDD1",
"r@	c #B3BDD2",
"s@	c #A9B8CA",
"t@	c #9AA9BC",
"u@	c #828DAD",
"v@	c #6B7AB1",
"w@	c #687ABA",
"x@	c #6B7FBE",
"y@	c #6C82C1",
"z@	c #7188C4",
"A@	c #778CC1",
"B@	c #8A98BE",
"C@	c #A4ADC5",
"D@	c #929CAD",
"E@	c #7B92BF",
"F@	c #9EB2DD",
"G@	c #A2B4DE",
"H@	c #9EB0D9",
"I@	c #91A0CC",
"J@	c #5E6A92",
"K@	c #A7B2C5",
"L@	c #AAB4C6",
"M@	c #AEB4C5",
"N@	c #B0B5C4",
"O@	c #B0B8C9",
"P@	c #B0BCD0",
"Q@	c #B3BED3",
"R@	c #B9C0D3",
"S@	c #B8C2D3",
"T@	c #ACBBD0",
"U@	c #8F9FC3",
"V@	c #6E83BE",
"W@	c #687FC1",
"X@	c #6B82C1",
"Y@	c #7287C4",
"Z@	c #798CC6",
"`@	c #7C8EC2",
" #	c #8B99BC",
".#	c #A0A8BC",
"+#	c #7F8694",
"@#	c #758CBB",
"##	c #A2B3DD",
"$#	c #AAB9DF",
"%#	c #A2B4DC",
"&#	c #8596C4",
"*#	c #424F74",
"=#	c #ABB5C5",
"-#	c #AFB8C9",
";#	c #B0B9C8",
">#	c #B2BAC8",
",#	c #B4BECF",
"'#	c #B9C3D3",
")#	c #BCC4D3",
"!#	c #BCC4D7",
"~#	c #B0BCD4",
"{#	c #90A4CB",
"]#	c #718CC9",
"^#	c #6F89CC",
"/#	c #7089CB",
"(#	c #748BC9",
"_#	c #7C8DC6",
":#	c #7F8EC1",
"<#	c #8794B9",
"[#	c #8D93A6",
"}#	c #5B616B",
"|#	c #869AC5",
"1#	c #A9B8DF",
"2#	c #AEBBE1",
"3#	c #A3B2DC",
"4#	c #7284B4",
"5#	c #2A3755",
"6#	c #98AABA",
"7#	c #AEB8C6",
"8#	c #AFB9C6",
"9#	c #B0BAC8",
"0#	c #B2BCCA",
"a#	c #B7BCC8",
"b#	c #B8BECB",
"c#	c #BAC2CE",
"d#	c #BAC4D2",
"e#	c #BBC4D6",
"f#	c #B2BCD5",
"g#	c #91A6D0",
"h#	c #7492D1",
"i#	c #7390D4",
"j#	c #7991D3",
"k#	c #7E93CF",
"l#	c #8092C9",
"m#	c #7D8DC1",
"n#	c #7484B1",
"o#	c #606B84",
"p#	c #9EB0D5",
"q#	c #AEBDE2",
"r#	c #ADBBE2",
"s#	c #97A8D4",
"t#	c #566694",
"u#	c #9EAEC0",
"v#	c #AEB8C7",
"w#	c #B0B9C7",
"x#	c #B2BBCA",
"y#	c #B6BCCC",
"z#	c #B8BCC9",
"A#	c #AFB4BE",
"B#	c #A6AAB4",
"C#	c #A3AAB8",
"D#	c #A3ABBD",
"E#	c #A0AAC2",
"F#	c #8699C4",
"G#	c #708CCB",
"H#	c #718FD0",
"I#	c #7A90CE",
"J#	c #7E90C9",
"K#	c #7A8EC4",
"L#	c #7386BB",
"M#	c #6878A8",
"N#	c #4A5676",
"O#	c #95A2C9",
"P#	c #AEBBDF",
"Q#	c #B0C0E4",
"R#	c #A8BAE0",
"S#	c #7F94C0",
"T#	c #344668",
"U#	c #A2B2C6",
"V#	c #B0BACC",
"W#	c #B1BCCA",
"X#	c #B4BCCC",
"Y#	c #B8BBCC",
"Z#	c #ABAEBB",
"`#	c #7F838C",
" $	c #585E66",
".$	c #4F5863",
"+$	c #505C69",
"@$	c #516274",
"#$	c #53668A",
"$$	c #5E75AD",
"%$	c #6985BC",
"&$	c #7188BD",
"*$	c #7386BD",
"=$	c #7186BC",
"-$	c #7687BC",
";$	c #6877A6",
">$	c #B7BEDD",
",$	c #BCC5E3",
"'$	c #B4C4E4",
")$	c #A0B3D9",
"!$	c #62749D",
"~$	c #A8B4CA",
"{$	c #B4BDD2",
"]$	c #B7BFD4",
"^$	c #B7BFD2",
"/$	c #B1B6C8",
"($	c #8A8A96",
"_$	c #4F6295",
":$	c #6C82B8",
"<$	c #738AC0",
"[$	c #748BC5",
"}$	c #7990C8",
"|$	c #8298CF",
"1$	c #8CA0D4",
"2$	c #8C9ED0",
"3$	c #7C8EBE",
"4$	c #B8C4E0",
"5$	c #C5CCE5",
"6$	c #C6CBE5",
"7$	c #B7C2E2",
"8$	c #8C9CC3",
"9$	c #3F4A6C",
"0$	c #B0B7CA",
"a$	c #B8C1D6",
"b$	c #BAC6DB",
"c$	c #B9C4D9",
"d$	c #A3ADC0",
"e$	c #5E6471",
"f$	c #697FB9",
"g$	c #748FC8",
"h$	c #7B96CF",
"i$	c #839CD4",
"j$	c #8CA4D9",
"k$	c #94A9DB",
"l$	c #98ABDB",
"m$	c #96AADA",
"n$	c #94A5D4",
"o$	c #8E9ECB",
"p$	c #8597C2",
"q$	c #788DB6",
"r$	c #6880A8",
"s$	c #BCC8E6",
"t$	c #C8D2EB",
"u$	c #CAD1EA",
"v$	c #C8CDE7",
"w$	c #AEB8D8",
"x$	c #66749A",
"y$	c #B3BAC7",
"z$	c #BAC2D1",
"A$	c #BCC8D8",
"B$	c #B8C4D8",
"C$	c #909EB1",
"D$	c #5D74B2",
"E$	c #738DC8",
"F$	c #8098D2",
"G$	c #88A1D7",
"H$	c #90A7D9",
"I$	c #97AADA",
"J$	c #9CB0DF",
"K$	c #A3B3DF",
"L$	c #A6B6DF",
"M$	c #A8B7DE",
"N$	c #A8B6DC",
"O$	c #A4B5DA",
"P$	c #A4B3D8",
"Q$	c #A5B4D6",
"R$	c #A8B7D7",
"S$	c #ACBBDA",
"T$	c #B6C4E1",
"U$	c #C6D2EC",
"V$	c #CFD9F1",
"W$	c #D2DAF0",
"X$	c #D0D6EE",
"Y$	c #C4CAE5",
"Z$	c #919BBE",
"`$	c #3C4663",
" %	c #B2BBCC",
".%	c #B9C0CD",
"+%	c #BBC3D0",
"@%	c #B4BCCE",
"#%	c #7D889B",
"$%	c #677FBA",
"%%	c #7D94CC",
"&%	c #8A9ED2",
"*%	c #92A5D4",
"=%	c #96AAD7",
"-%	c #9AAEDC",
";%	c #9FB2DE",
">%	c #A8B7E1",
",%	c #AEBEE2",
"'%	c #B0C0E3",
")%	c #B3C3E5",
"!%	c #BAC8E8",
"~%	c #C1CCEA",
"{%	c #C5CFEA",
"]%	c #C8D1EA",
"^%	c #CED5EC",
"/%	c #D6DEF3",
"(%	c #D8DEF2",
"_%	c #D2D8EF",
":%	c #B1BAD8",
"<%	c #606C8E",
"[%	c #91A5BF",
"}%	c #B5BFD4",
"|%	c #BCC4D4",
"1%	c #BDC3CF",
"2%	c #ACB2C0",
"3%	c #677281",
"4%	c #5D72AA",
"5%	c #7488BD",
"6%	c #8597C8",
"7%	c #8DA2D2",
"8%	c #96AAD9",
"9%	c #A9BAE2",
"0%	c #AEBDE3",
"a%	c #B1C0E4",
"b%	c #B6C4E6",
"c%	c #B9C8E8",
"d%	c #BFCDEC",
"e%	c #C6D3EE",
"f%	c #CAD6F0",
"g%	c #CED7EF",
"h%	c #D2D9EE",
"i%	c #D5DCF0",
"j%	c #D9DFF3",
"k%	c #D9DEF2",
"l%	c #C6CEE6",
"m%	c #8891B2",
"n%	c #323B55",
"o%	c #98ABC3",
"p%	c #C2CADB",
"q%	c #BFC5D2",
"r%	c #A4A8B5",
"s%	c #545F6B",
"t%	c #586A9C",
"u%	c #6C83B5",
"v%	c #8197C8",
"w%	c #95A8D5",
"x%	c #A4B4DE",
"y%	c #ACBBE2",
"z%	c #B0C0E5",
"A%	c #B7C6E8",
"B%	c #BCCAEA",
"C%	c #C2D0EC",
"D%	c #C8D4EF",
"E%	c #CDD9F1",
"F%	c #D2DCF2",
"G%	c #D6DEF0",
"H%	c #D8DEF1",
"I%	c #D0D4EC",
"J%	c #9EA8C8",
"K%	c #4A5373",
"L%	c #9FAEC3",
"M%	c #BAC4D6",
"N%	c #C4CADA",
"O%	c #BEC3D0",
"P%	c #999DAA",
"Q%	c #445C86",
"R%	c #6073A0",
"S%	c #7A8AB8",
"T%	c #909ECA",
"U%	c #9FAED6",
"V%	c #A9BADE",
"W%	c #B4C2E4",
"X%	c #BDCAE8",
"Y%	c #C4CFEB",
"Z%	c #CBD5EE",
"`%	c #D0D9EF",
" &	c #D4DAEE",
".&	c #D4D8ED",
"+&	c #CAD1E9",
"@&	c #A8AFCE",
"#&	c #596485",
"$&	c #A8B2C4",
"%&	c #BBC4D3",
"&&	c #C0C6D3",
"*&	c #8C92A2",
"=&	c #425279",
"-&	c #56668F",
";&	c #677AA4",
">&	c #798BB6",
",&	c #8C9BC2",
"'&	c #99A6CC",
")&	c #A4B0D2",
"!&	c #AAB5D3",
"~&	c #ABB5D2",
"{&	c #A2ACC9",
"]&	c #8892B4",
"^&	c #565E80",
"/&	c #BFC6D5",
"(&	c #C0C6D2",
"_&	c #B4B8C6",
":&	c #7E8495",
"<&	c #384B6E",
"[&	c #42567A",
"}&	c #485A7C",
"|&	c #455676",
"1&	c #3B4B69",
"2&	c #2A3650",
"3&	c #ACB6C8",
"4&	c #BEC8D7",
"5&	c #C2C8D4",
"6&	c #B2B5C1",
"7&	c #737684",
"8&	c #ADB8CB",
"9&	c #BFC8D6",
"0&	c #C2C8D3",
"a&	c #ACB1BC",
"b&	c #646B76",
"c&	c #B1BBCC",
"d&	c #C0C8D6",
"e&	c #A2A7B4",
"f&	c #505B68",
"g&	c #B0BBCE",
"h&	c #BAC2D0",
"i&	c #9598A4",
"j&	c #B1BACE",
"k&	c #B9C6D8",
"l&	c #808491",
"m&	c #A6AEC4",
"n&	c #B2BACC",
"o&	c #9FA5B5",
"p&	c #606671",
"q&	c #7F8999",
"r&	c #656C77",
"                                                                                                ",
"                                                  . . . . . . . . .                             ",
"                                              . . . + @ # $ % & * . . . .                       ",
"                                            . . = - ; > , ' ) ! ~ { ] ^ . . .                   ",
"                                        . . . / ( _ : < [ } | 1 2 3 4 5 6 7 . .                 ",
"                                      . . 8 9 0 a b c d e f g h i j k l m n . .                 ",
"                                    . . o p q r s t u v w x y z A B C . . . .                   ",
"                                  . . D E F G H I J K L M N O P . . . .                         ",
"                                . . Q R S T U V W X Y Z ` . . . .                               ",
"                                .  ...+.@.#.$.%.&.*.. . . .                                     ",
"                  . . . . . . . . =.-.;.>.,.'.).!.. .                                           ",
"              . . . ~.{.].^./.(._.:./ <.[.}.|.1.. .                                             ",
"            . . 2.3.4.5.6.7.8.9.0.a.b.c.d.e.f.g..                                               ",
"            . h.i.j.k.l.m.n.o.p.q.r.s.t.u.v.w.x..                                               ",
"          . . y.5.z.A.B.C.D.E.F.G.H.I.J.K.L.M.. .                                               ",
"          . N.O.P.Q.R.S.T.U.V.W.X.Y.Z.`. +.+++.                                                 ",
"        . . @+#+$+%+&+*+=+. . . -+;+>+,+'+)+!+.                                                 ",
"        . ~+{+]+^+/+(+. . .   . _+:+<+[+}+|+1+. .                                               ",
"        . ~+2+3+4+5+6+.       . 7+8+9+0+a+b+c+d+.             . . . . . . . . . . . . .         ",
"        . e+f+g+h+i+j+.       . k+l+m+n+o+p+q+r+. .           . . s+t+u+v+w+x+y+z+A+B+. . .     ",
"      . . C+D+E+F+G+H+.     . . I+J+K+L+M+N+O+P+Q+.             . . . R+S+T+U+V+W+X+Y+Z+`+.     ",
"      .  @.@+@@@#@$@%@.     . &@*@=@-@;@>@,@'@)@!@.                 . . ~@{@]@^@/@(@_@:@<@.     ",
"      . [@}@|@1@}@2@3@. . . . 4@5@6@7@8@9@0@a@b@c@.                   . . . d@e@f@g@h@i@j@.     ",
"      . k@l@m@n@o@p@q@r@s@t@u@v@w@x@y@z@A@B@C@D@. .                       . E@F@G@H@I@J@. .     ",
"      . K@L@M@N@O@P@Q@R@S@T@U@V@W@X@Y@Z@`@ #.#+#.                         . @###$#%#&#*#.       ",
"    . . =#$@-#;#>#,#'#)#!#~#{#]#^#/#(#_#:#<#[#}#.                         . |#1#2#3#4#5#.       ",
"    . 6#7#8#9#0#a#b#c#d#e#f#g#h#i#j#k#l#m#n#o#. .                       . . p#q#r#s#t#. .       ",
"    . u#v#w#x#y#z#A#B#C#D#E#F#G#H#I#J#K#L#M#N#.                         . O#P#Q#R#S#T#.         ",
"    . U#V#W#X#Y#Z#`# $.$+$@$#$$$%$&$*$=$=$-$;$. .                     . . >$,$'$)$!$. .         ",
"    . ~${$]$^$/$($. . . . . . _$:$<$[$}$|$1$2$3$. . . . . .         . . 4$5$6$7$8$9$.           ",
"    . 0$a$b$c$d$e$.         . . f$g$h$i$j$k$l$m$n$o$p$q$r$. . . . . . s$t$u$v$w$x$. .           ",
"    . y$z$A$B$C$. .           . D$E$F$G$H$I$/@J$K$L$M$N$O$P$Q$R$S$T$U$V$W$X$Y$Z$`$.             ",
"  . .  %.%+%@%#%.             . . $%%%&%*%=%-%;%>%r#,%'%)%!%~%{%]%^%W$/%(%_%:%<%. .             ",
"  . [%}%|%1%2%3%.               . . 4%5%6%7%8%;%9%0%a%b%c%d%e%f%g%h%i%j%k%l%m%n%.               ",
"  . o%c$p%q%r%s%.                 . . . t%u%v%w%x%y%z%A%B%C%D%E%F%G%H%k%I%J%K%. .               ",
"  . L%M%N%O%P%. .                     . . . Q%R%S%T%U%V%W%X%Y%Z%`% &.&+&@&#&. .                 ",
"  . $&%&&&b#*&.                           . . . . =&-&;&>&,&'&)&!&~&{&]&^&. .                   ",
"  . M@/&(&_&:&.                                 . . . . . . <&[&}&|&1&2&. .                     ",
"  . 3&4&5&6&7&.                                           . . . . . . . .                       ",
"  . 8&9&0&a&b&.                                                                                 ",
"  . c&d&(&e&f&.                                                                                 ",
"  . g&A$h&i&. .                                                                                 ",
"  . j&k&2@l&.                                                                                   ",
"  . m&n&o&p&.                                                                                   ",
"  . . q&r&. .                                                                                   ",
"    . . . .                                                                                     ",
"                                                                                                ",
"                                                                                                "};
