/* XPM */
static char * globe_xpm[] = {
"15 15 9 1",
" 	c None",
".	c #333333",
"+	c #4455AA",
"@	c #778833",
"#	c #5588EE",
"$	c #884499",
"%	c #99BB66",
"&	c #886677",
"*	c #773366",
"     $##@$     ",
"   $#####@.*   ",
"  *######@@+*  ",
" $+#####%@@@.* ",
" ++#####%%%@&+ ",
"$######%%%%@&.*",
"+%#######%@@++.",
"@#######+++&...",
"+@@###++#+.++..",
"$@@@#+++++.+..*",
" +@@@++++.+... ",
" $+#+++++....* ",
"  ++..+.+....  ",
"   $.......*   ",
"     *...*     "};
