/* XPM */
static char * xchat_mini_xpm[] = {
"16 16 17 1",
" 	c None",
".	c #F0EDE8",
"+	c #D2D1D4",
"@	c #BAB9C1",
"#	c #58524B",
"$	c #A19FA6",
"%	c #120E10",
"&	c #FED606",
"*	c #AA8506",
"=	c #5E2A06",
"-	c #FCB006",
";	c #FE8206",
">	c #FE4A06",
",	c #AC2A06",
"'	c #FE3606",
")	c #762206",
"!	c #DB2406",
"  ..        ..  ",
" $%*$      $*=@ ",
" #&&*$    @$&&# ",
" #&&&*@  @*&&&# ",
" .#&&-*$@#&--#. ",
"  .#---*=---#.  ",
"   .#;-;-;;#.   ",
"    .$;;;;#.  $ ",
" @@@$@@@@@+@+++ ",
" +%%%+%%++%%+ .%",
" +.+>.;#+...+$+ ",
" $,>>'#..#'>>=$ ",
" #'''#.  .#'''# ",
" #!!#.    .#'!# ",
" .@@.      .@@. ",
"                "};
