/* XPM */
static char * xchat_xpm[] = {
"48 48 17 1",
" 	c None",
".	c #120E10",
"+	c #58524B",
"@	c #AA8506",
"#	c #A19FA6",
"$	c #FE3606",
"%	c #BAB9C1",
"&	c #FE4A06",
"*	c #DB2406",
"=	c #FCB006",
"-	c #AC2A06",
";	c #D2D1D4",
">	c #762206",
",	c #5E2A06",
"'	c #FED606",
")	c #F0EDE8",
"!	c #FE8206",
"                                                ",
"      ))))))                        ))))))      ",
"     );;%;%;))                     );;%;%;))    ",
"   ))%++++++%)                   ))%++++++%)    ",
"   )#+..%'@.+#))                 )#+.@'%,.+%)   ",
"  );+,.''''#.+#)               ))%+.#''''+.+;)  ",
"  );+.''''''%.+%))             )#+.#''''''++%)  ",
"  )%+#'''''''@.+#)           ))%+.#'''''''=+%)  ",
"  )%+@''''''''@.+%))         )#+.#''''''''@+%)  ",
"  )%+.'''''''''@.+#)       );%+,@'''''''''++%)  ",
"  );+.+'''''''''@.+%))     )%+.@''''''''',.+;)  ",
"   )%+.+='='='=''@.+#)   ))#+.+''='='='=+,+%)   ",
"    )#+.+===='=='=@.+%))))#+.+===='=='=+.+%))   ",
"    ))%+.+'=='===='@.+#))%+.+=='======+.+#))    ",
"     ))#+.+====='===@.+##+.+====='===+.+%))     ",
"      ))%+.,=========@..+.+=========+.+#))      ",
"       ))%+.+=========@..,=========,.+%))       ",
"        ))%+.,!===!===!@,=========+.+#))        ",
"         ))%+.+!=!=!=!==!=!!=!!!=,.+%))         ",
"          ))%+.,!=!=!=!=!=!=!==!+.+%))          ",
"           ))%+.+!=!=!!=!=!=!!=,.+%))           ",
"            ))###,!!!=!!!!!=!!,.+#))      ##    ",
"             )###.,!!!!=!!!!!+.+#;)       ##    ",
"             )###.,!!!!!!!!!!+..#))       %#.   ",
"             )###.!!!!!!!!!!!!,.+%))%%    %%.   ",
"  %%%#%%%%%%%#%%%%%%%%%%%%!%%;;;%;%;;;  ;;;;;;  ",
"  %%%%%%%%%;%+;;%;;%;;;;;;!;;;;;;;;;;;. ;;;;;;  ",
"  ;;;.........;;;......;;;.;;;......;;.  .;;... ",
"  ;;;.........;;;......;);.;;;......;;.) .;)... ",
"  );;. );#+.,&);;.&&!&-;;;.));.&&&&,);.)) );.   ",
"  ;;);))););)&);).&&&+,))).;;))))));)).#)))).   ",
"  )););););))&))).&!-.+));.)));))))));.+#));.   ",
"   ...........&...&-.+%;................+#)..   ",
"   ...........&...-++#))...+...........,.+#..   ",
"   )#+.-&$&&$&&&$-.+%))  ))#+.,$&$&&$&&&,.+#)   ",
"  );+.-&&&&&&$&&-.+#))    ))#+.,&&$&&&&&&,.+;)  ",
"  )%+,&$$$$$&$&-.+%))      ))#+.,$&$$$$$&$,+%)  ",
"  )%+-$$$&$$$$>++#))        ))%+..$$$$&$$$-+%)  ",
"  )%+-$$$$$$$-.+%))          ))#+,,$$$$$$$-+%)  ",
"  )%+.*$*$*$-.+#))            ))#+.,*$*$$$.+;)  ",
"  );+..*$$*-.+%))              ))%+.>$*$*>.+;)  ",
"   )%+..**-.+#))                ))#+.>**>.+%)   ",
"    )%+++,++%))                  ))%++,+++%))   ",
"    ));%%%%;))                    ));%%%%;))    ",
"      ))))))                        ))))))      ",
"                                                ",
"                                                ",
"                                                "};
